  0
SECTION
  2
HEADER
  9
$ACADVER
  1
AC1015
  9
$ACADMAINTVER
 70
     6
  9
$DWGCODEPAGE
  3
ANSI_1252
  9
$INSBASE
 10
0.0
 20
0.0
 30
0.0
  9
$EXTMIN
 10
-3.2533787447
 20
8.2712107888
 30
0.0
  9
$EXTMAX
 10
171.4428470302
 20
67.2683720635
 30
0.0
  9
$LIMMIN
 10
0.0
 20
0.0
  9
$LIMMAX
 10
420.0
 20
297.0
  9
$ORTHOMODE
 70
     0
  9
$REGENMODE
 70
     1
  9
$FILLMODE
 70
     1
  9
$QTEXTMODE
 70
     0
  9
$MIRRTEXT
 70
     1
  9
$LTSCALE
 40
1.0
  9
$ATTMODE
 70
     1
  9
$TEXTSIZE
 40
3.5
  9
$TRACEWID
 40
1.0
  9
$TEXTSTYLE
  7
Standard
  9
$CLAYER
  8
0
  9
$CELTYPE
  6
ByLayer
  9
$CECOLOR
 62
   256
  9
$CELTSCALE
 40
1.0
  9
$DISPSILH
 70
     0
  9
$DIMSCALE
 40
1.0
  9
$DIMASZ
 40
3.302
  9
$DIMEXO
 40
0.0
  9
$DIMDLI
 40
3.75
  9
$DIMRND
 40
0.0
  9
$DIMDLE
 40
0.0
  9
$DIMEXE
 40
1.0
  9
$DIMTP
 40
0.0
  9
$DIMTM
 40
0.0
  9
$DIMTXT
 40
3.5
  9
$DIMCEN
 40
2.5
  9
$DIMTSZ
 40
0.0
  9
$DIMTOL
 70
     0
  9
$DIMLIM
 70
     0
  9
$DIMTIH
 70
     1
  9
$DIMTOH
 70
     1
  9
$DIMSE1
 70
     0
  9
$DIMSE2
 70
     0
  9
$DIMTAD
 70
     1
  9
$DIMZIN
 70
     1
  9
$DIMBLK
  1

  9
$DIMASO
 70
     1
  9
$DIMSHO
 70
     1
  9
$DIMPOST
  1

  9
$DIMAPOST
  1

  9
$DIMALT
 70
     0
  9
$DIMALTD
 70
     3
  9
$DIMALTF
 40
0.0393700787
  9
$DIMLFAC
 40
1.0
  9
$DIMTOFL
 70
     1
  9
$DIMTVP
 40
0.0
  9
$DIMTIX
 70
     0
  9
$DIMSOXD
 70
     0
  9
$DIMSAH
 70
     0
  9
$DIMBLK1
  1

  9
$DIMBLK2
  1

  9
$DIMSTYLE
  2
ISO-25
  9
$DIMCLRD
 70
     0
  9
$DIMCLRE
 70
     0
  9
$DIMCLRT
 70
     0
  9
$DIMTFAC
 40
1.0
  9
$DIMGAP
 40
1.524
  9
$DIMJUST
 70
     0
  9
$DIMSD1
 70
     0
  9
$DIMSD2
 70
     0
  9
$DIMTOLJ
 70
     0
  9
$DIMTZIN
 70
     1
  9
$DIMALTZ
 70
     0
  9
$DIMALTTZ
 70
     0
  9
$DIMUPT
 70
     0
  9
$DIMDEC
 70
     2
  9
$DIMTDEC
 70
     2
  9
$DIMALTU
 70
     2
  9
$DIMALTTD
 70
     3
  9
$DIMTXSTY
  7
Standard
  9
$DIMAUNIT
 70
     0
  9
$DIMADEC
 70
     2
  9
$DIMALTRND
 40
0.0
  9
$DIMAZIN
 70
     0
  9
$DIMDSEP
 70
    44
  9
$DIMATFIT
 70
     3
  9
$DIMFRAC
 70
     0
  9
$DIMLDRBLK
  1

  9
$DIMLUNIT
 70
     2
  9
$DIMLWD
 70
    -2
  9
$DIMLWE
 70
    -2
  9
$DIMTMOVE
 70
     0
  9
$LUNITS
 70
     2
  9
$LUPREC
 70
     2
  9
$SKETCHINC
 40
1.0
  9
$FILLETRAD
 40
0.0
  9
$AUNITS
 70
     0
  9
$AUPREC
 70
     2
  9
$MENU
  1
.
  9
$ELEVATION
 40
0.0
  9
$PELEVATION
 40
0.0
  9
$THICKNESS
 40
0.0
  9
$LIMCHECK
 70
     0
  9
$CHAMFERA
 40
0.0
  9
$CHAMFERB
 40
0.0
  9
$CHAMFERC
 40
0.0
  9
$CHAMFERD
 40
0.0
  9
$SKPOLY
 70
     0
  9
$TDCREATE
 40
2460125.014702975
  9
$TDUCREATE
 40
2460124.868869642
  9
$TDUPDATE
 40
2460125.01475059
  9
$TDUUPDATE
 40
2460124.868917257
  9
$TDINDWG
 40
0.0000000116
  9
$TDUSRTIMER
 40
0.0000000116
  9
$USRTIMER
 70
     1
  9
$ANGBASE
 50
0.0
  9
$ANGDIR
 70
     0
  9
$PDMODE
 70
     0
  9
$PDSIZE
 40
-1.0
  9
$PLINEWID
 40
0.0
  9
$SPLFRAME
 70
     0
  9
$SPLINETYPE
 70
     6
  9
$SPLINESEGS
 70
     8
  9
$HANDSEED
  5
4C2
  9
$SURFTAB1
 70
     6
  9
$SURFTAB2
 70
     6
  9
$SURFTYPE
 70
     6
  9
$SURFU
 70
     6
  9
$SURFV
 70
     6
  9
$UCSBASE
  2

  9
$UCSNAME
  2

  9
$UCSORG
 10
0.0
 20
0.0
 30
0.0
  9
$UCSXDIR
 10
1.0
 20
0.0
 30
0.0
  9
$UCSYDIR
 10
0.0
 20
1.0
 30
0.0
  9
$UCSORTHOREF
  2

  9
$UCSORTHOVIEW
 70
     0
  9
$UCSORGTOP
 10
0.0
 20
0.0
 30
0.0
  9
$UCSORGBOTTOM
 10
0.0
 20
0.0
 30
0.0
  9
$UCSORGLEFT
 10
0.0
 20
0.0
 30
0.0
  9
$UCSORGRIGHT
 10
0.0
 20
0.0
 30
0.0
  9
$UCSORGFRONT
 10
0.0
 20
0.0
 30
0.0
  9
$UCSORGBACK
 10
0.0
 20
0.0
 30
0.0
  9
$PUCSBASE
  2

  9
$PUCSNAME
  2

  9
$PUCSORG
 10
0.0
 20
0.0
 30
0.0
  9
$PUCSXDIR
 10
1.0
 20
0.0
 30
0.0
  9
$PUCSYDIR
 10
0.0
 20
1.0
 30
0.0
  9
$PUCSORTHOREF
  2

  9
$PUCSORTHOVIEW
 70
     0
  9
$PUCSORGTOP
 10
0.0
 20
0.0
 30
0.0
  9
$PUCSORGBOTTOM
 10
0.0
 20
0.0
 30
0.0
  9
$PUCSORGLEFT
 10
0.0
 20
0.0
 30
0.0
  9
$PUCSORGRIGHT
 10
0.0
 20
0.0
 30
0.0
  9
$PUCSORGFRONT
 10
0.0
 20
0.0
 30
0.0
  9
$PUCSORGBACK
 10
0.0
 20
0.0
 30
0.0
  9
$USERI1
 70
     0
  9
$USERI2
 70
     0
  9
$USERI3
 70
     0
  9
$USERI4
 70
     0
  9
$USERI5
 70
     0
  9
$USERR1
 40
0.0
  9
$USERR2
 40
0.0
  9
$USERR3
 40
0.0
  9
$USERR4
 40
0.0
  9
$USERR5
 40
0.0
  9
$WORLDVIEW
 70
     1
  9
$SHADEDGE
 70
     3
  9
$SHADEDIF
 70
    70
  9
$TILEMODE
 70
     1
  9
$MAXACTVP
 70
    64
  9
$PINSBASE
 10
0.0
 20
0.0
 30
0.0
  9
$PLIMCHECK
 70
     0
  9
$PEXTMIN
 10
1.0000000000E+20
 20
1.0000000000E+20
 30
1.0000000000E+20
  9
$PEXTMAX
 10
-1.0000000000E+20
 20
-1.0000000000E+20
 30
-1.0000000000E+20
  9
$PLIMMIN
 10
0.0
 20
0.0
  9
$PLIMMAX
 10
420.0
 20
297.0
  9
$UNITMODE
 70
     0
  9
$VISRETAIN
 70
     1
  9
$PLINEGEN
 70
     0
  9
$PSLTSCALE
 70
     1
  9
$TREEDEPTH
 70
  3020
  9
$CMLSTYLE
  2
Standard
  9
$CMLJUST
 70
     0
  9
$CMLSCALE
 40
20.0
  9
$PROXYGRAPHICS
 70
     1
  9
$MEASUREMENT
 70
     1
  9
$CELWEIGHT
370
    -1
  9
$ENDCAPS
280
     0
  9
$JOINSTYLE
280
     0
  9
$LWDISPLAY
290
     1
  9
$INSUNITS
 70
     4
  9
$HYPERLINKBASE
  1

  9
$STYLESHEET
  1

  9
$XEDIT
290
     1
  9
$CEPSNTYPE
380
     0
  9
$PSTYLEMODE
290
     1
  9
$FINGERPRINTGUID
  2
{3dcbf873-cac6-4fd3-bba8-c31ec0d24399}
  9
$VERSIONGUID
  2
{FAEB1C32-E019-11D5-929B-00C0DF256EC4}
  9
$EXTNAMES
290
     1
  9
$PSVPSCALE
 40
0.0
  9
$OLESTARTUP
290
     0
  0
ENDSEC
  0
SECTION
  2
CLASSES
  0
CLASS
  1
ACDBDICTIONARYWDFLT
  2
AcDbDictionaryWithDefault
  3
ObjectDBX Classes
 90
        0
280
     0
281
     0
  0
CLASS
  1
VISUALSTYLE
  2
AcDbVisualStyle
  3
ObjectDBX Classes
 90
     4095
280
     0
281
     0
  0
CLASS
  1
MATERIAL
  2
AcDbMaterial
  3
ObjectDBX Classes
 90
     1153
280
     0
281
     0
  0
CLASS
  1
SCALE
  2
AcDbScale
  3
ObjectDBX Classes
 90
     1153
280
     0
281
     0
  0
CLASS
  1
TABLESTYLE
  2
AcDbTableStyle
  3
ObjectDBX Classes
 90
     4095
280
     0
281
     0
  0
CLASS
  1
MLEADERSTYLE
  2
AcDbMLeaderStyle
  3
ACDB_MLEADERSTYLE_CLASS
 90
     4095
280
     0
281
     0
  0
CLASS
  1
SUN
  2
AcDbSun
  3
SCENEOE
 90
     1153
280
     0
281
     0
  0
CLASS
  1
ACDBPLACEHOLDER
  2
AcDbPlaceHolder
  3
ObjectDBX Classes
 90
        0
280
     0
281
     0
  0
CLASS
  1
LAYOUT
  2
AcDbLayout
  3
ObjectDBX Classes
 90
        0
280
     0
281
     0
  0
ENDSEC
  0
SECTION
  2
TABLES
  0
TABLE
  2
VPORT
  5
8
330
0
100
AcDbSymbolTable
 70
     1
  0
VPORT
  5
29
330
8
100
AcDbSymbolTableRecord
100
AcDbViewportTableRecord
  2
*Active
 70
     0
 10
0.0
 20
0.0
 11
1.0
 21
1.0
 12
84.0947341427
 22
37.7697914261
 13
0.0
 23
0.0
 14
10.0
 24
10.0
 15
10.0
 25
10.0
 16
0.0
 26
0.0
 36
1.0
 17
0.0
 27
0.0
 37
0.0
 40
60.1771045002
 41
2.9610954493
 42
50.0
 43
0.0
 44
0.0
 50
0.0
 51
0.0
 71
     0
 72
   100
 73
     1
 74
     3
 75
     0
 76
     0
 77
     0
 78
     0
281
     0
 65
     1
110
0.0
120
0.0
130
0.0
111
1.0
121
0.0
131
0.0
112
0.0
122
1.0
132
0.0
 79
     0
146
0.0
  0
ENDTAB
  0
TABLE
  2
LTYPE
  5
5
330
0
100
AcDbSymbolTable
 70
     6
  0
LTYPE
  5
14
330
5
100
AcDbSymbolTableRecord
100
AcDbLinetypeTableRecord
  2
ByBlock
 70
     0
  3

 72
    65
 73
     0
 40
0.0
  0
LTYPE
  5
15
330
5
100
AcDbSymbolTableRecord
100
AcDbLinetypeTableRecord
  2
ByLayer
 70
     0
  3

 72
    65
 73
     0
 40
0.0
  0
LTYPE
  5
16
330
5
100
AcDbSymbolTableRecord
100
AcDbLinetypeTableRecord
  2
Continuous
 70
     0
  3
Solid line
 72
    65
 73
     0
 40
0.0
  0
LTYPE
  5
5E
330
5
100
AcDbSymbolTableRecord
100
AcDbLinetypeTableRecord
  2
HIDDEN
 70
     0
  3
Hidden __ __ __ __ __ __ __ __ __ __ __ __ __ __
 72
    65
 73
     2
 40
1.905
 49
1.27
 74
     0
 49
-0.635
 74
     0
  0
LTYPE
  5
5F
330
5
100
AcDbSymbolTableRecord
100
AcDbLinetypeTableRecord
  2
PHANTOM
 70
     0
  3
Phantom ______  __  __  ______  __  __  ______
 72
    65
 73
     6
 40
12.7
 49
6.35
 74
     0
 49
-1.27
 74
     0
 49
1.27
 74
     0
 49
-1.27
 74
     0
 49
1.27
 74
     0
 49
-1.27
 74
     0
  0
LTYPE
  5
60
330
5
100
AcDbSymbolTableRecord
100
AcDbLinetypeTableRecord
  2
CENTER
 70
     0
  3
Center ____ _ ____ _ ____ _ ____ _ ____ _ ____
 72
    65
 73
     4
 40
10.16
 49
6.35
 74
     0
 49
-1.27
 74
     0
 49
1.27
 74
     0
 49
-1.27
 74
     0
  0
LTYPE
  5
61
330
5
100
AcDbSymbolTableRecord
100
AcDbLinetypeTableRecord
  2
CENTERX2
 70
     0
  3
Center (2x) ________  __  ________  __  _____
 72
    65
 73
     4
 40
20.32
 49
12.7
 74
     0
 49
-2.54
 74
     0
 49
2.54
 74
     0
 49
-2.54
 74
     0
  0
LTYPE
  5
62
330
5
100
AcDbSymbolTableRecord
100
AcDbLinetypeTableRecord
  2
DOT2
 70
     0
  3
Dot (.5x) ........................................
 72
    65
 73
     2
 40
0.635
 49
0.0
 74
     0
 49
-0.635
 74
     0
  0
ENDTAB
  0
TABLE
  2
LAYER
  5
2
330
0
100
AcDbSymbolTable
 70
     1
  0
LAYER
  5
10
330
2
100
AcDbSymbolTableRecord
100
AcDbLayerTableRecord
  2
0
 70
     0
 62
     7
  6
Continuous
370
    -3
390
F
  0
ENDTAB
  0
TABLE
  2
STYLE
  5
3
330
0
100
AcDbSymbolTable
 70
     1
  0
STYLE
  5
11
330
3
100
AcDbSymbolTableRecord
100
AcDbTextStyleTableRecord
  2
Standard
 70
     0
 40
0.0
 41
1.0
 50
0.0
 71
     0
 42
3.5
  3
txt
  4

  0
ENDTAB
  0
TABLE
  2
VIEW
  5
6
330
0
100
AcDbSymbolTable
 70
     0
  0
ENDTAB
  0
TABLE
  2
UCS
  5
7
330
0
100
AcDbSymbolTable
 70
     0
  0
ENDTAB
  0
TABLE
  2
APPID
  5
9
330
0
100
AcDbSymbolTable
 70
     1
  0
APPID
  5
12
330
9
100
AcDbSymbolTableRecord
100
AcDbRegAppTableRecord
  2
ACAD
 70
     0
  0
ENDTAB
  0
TABLE
  2
DIMSTYLE
  5
A
330
0
100
AcDbSymbolTable
 70
     1
100
AcDbDimStyleTable
  0
DIMSTYLE
105
27
330
A
100
AcDbSymbolTableRecord
100
AcDbDimStyleTableRecord
  2
ISO-25
 70
     0
 41
2.5
 42
0.625
 43
3.75
 44
1.25
 73
     0
 74
     0
 77
     1
 78
     8
140
2.5
141
2.5
143
0.0393700787
147
0.625
171
     3
172
     1
178
     0
271
     2
272
     2
274
     3
278
    44
283
     0
284
     8
340
11
  0
ENDTAB
  0
TABLE
  2
BLOCK_RECORD
  5
1
330
0
100
AcDbSymbolTable
 70
     1
  0
BLOCK_RECORD
  5
1F
330
1
100
AcDbSymbolTableRecord
100
AcDbBlockTableRecord
  2
*Model_Space
340
22
  0
BLOCK_RECORD
  5
1B
330
1
100
AcDbSymbolTableRecord
100
AcDbBlockTableRecord
  2
*Paper_Space
340
1E
  0
BLOCK_RECORD
  5
23
330
1
100
AcDbSymbolTableRecord
100
AcDbBlockTableRecord
  2
*Paper_Space0
340
26
  0
ENDTAB
  0
ENDSEC
  0
SECTION
  2
BLOCKS
  0
BLOCK
  5
20
330
1F
100
AcDbEntity
  8
0
100
AcDbBlockBegin
  2
*Model_Space
 70
     0
 10
0.0
 20
0.0
 30
0.0
  3
*Model_Space
  1

  0
ENDBLK
  5
21
330
1F
100
AcDbEntity
  8
0
100
AcDbBlockEnd
  0
BLOCK
  5
1C
330
1B
100
AcDbEntity
 67
     1
  8
0
100
AcDbBlockBegin
  2
*Paper_Space
 70
     0
 10
0.0
 20
0.0
 30
0.0
  3
*Paper_Space
  1

  0
ENDBLK
  5
1D
330
1B
100
AcDbEntity
 67
     1
  8
0
100
AcDbBlockEnd
  0
BLOCK
  5
24
330
23
100
AcDbEntity
  8
0
100
AcDbBlockBegin
  2
*Paper_Space0
 70
     0
 10
0.0
 20
0.0
 30
0.0
  3
*Paper_Space0
  1

  0
ENDBLK
  5
25
330
23
100
AcDbEntity
  8
0
100
AcDbBlockEnd
  0
ENDSEC
  0
SECTION
  2
ENTITIES
  0
SPLINE
  5
65
330
1F
100
AcDbEntity
  8
0
  6
Continuous
 62
     7
370
    25
100
AcDbSpline
210
0.0
220
0.0
230
1.0
 70
     8
 71
     3
 72
    14
 73
    10
 74
     0
 42
0.00000001
 43
0.00000001
 40
0.0
 40
0.0
 40
0.0
 40
0.0
 40
0.1407871708975743
 40
0.2807855357654582
 40
0.4199320226826932
 40
0.5601597313520426
 40
0.7063958973309193
 40
0.8525315211090567
 40
1.0
 40
1.0
 40
1.0
 40
1.0
 10
2.279168507770129
 20
58.25603592639923
 30
0.0
 10
3.010124551187487
 20
59.04071184094403
 30
0.0
 10
4.467941218455159
 20
60.60566726737278
 30
0.0
 10
7.003696858527809
 20
62.5691929411733
 30
0.0
 10
9.736140920895739
 20
64.22668117972502
 30
0.0
 10
12.69959484798248
 20
65.55229595949457
 30
0.0
 10
15.8480533027156
 20
66.52926326877166
 30
0.0
 10
19.14757744284691
 20
67.154145973885
 30
0.0
 10
21.38230507333608
 20
67.23018164226741
 30
0.0
 10
22.5047413111404
 20
67.26837206350427
 30
0.0
  0
SPLINE
  5
67
330
1F
100
AcDbEntity
  8
0
  6
Continuous
 62
     7
370
    25
100
AcDbSpline
210
0.0
220
0.0
230
1.0
 70
     8
 71
     3
 72
    11
 73
     7
 74
     0
 42
0.00000001
 43
0.00000001
 40
0.0
 40
0.0
 40
0.0
 40
0.0
 40
0.2801496425137496
 40
0.5603193441074648
 40
0.7801961234125845
 40
1.0
 40
1.0
 40
1.0
 40
1.0
 10
145.6693134992803
 20
67.26837204339243
 30
0.0
 10
146.736205684218
 20
67.23334509893944
 30
0.0
 10
148.8700664449661
 20
67.16328870205854
 30
0.0
 10
151.8004650174502
 20
66.63063004582673
 30
0.0
 10
154.4466833708847
 20
65.90410407655077
 30
0.0
 10
155.9977014575375
 20
65.27229296758982
 30
0.0
 10
156.7730819150003
 20
64.95643979288351
 30
0.0
  0
SPLINE
  5
68
330
1F
100
AcDbEntity
  8
0
  6
Continuous
 62
     7
370
    25
100
AcDbSpline
210
0.0
220
0.0
230
1.0
 70
     8
 71
     3
 72
    11
 73
     7
 74
     0
 42
0.00000001
 43
0.00000001
 40
0.0
 40
0.0
 40
0.0
 40
0.0
 40
0.2802013044718402
 40
0.5604100633610184
 40
0.7802457390372556
 40
1.0
 40
1.0
 40
1.0
 40
1.0
 10
156.7730819150003
 20
64.95643979288351
 30
0.0
 10
157.7389586673406
 20
64.49159049015253
 30
0.0
 10
159.6707378680056
 20
63.56187951793623
 30
0.0
 10
162.1314708576571
 20
61.86127302156576
 30
0.0
 10
164.2388562216626
 20
60.08597963190532
 30
0.0
 10
165.371655868395
 20
58.84380338488315
 30
0.0
 10
165.9379507910901
 20
58.22283029064688
 30
0.0
  0
SPLINE
  5
69
330
1F
100
AcDbEntity
  8
0
  6
Continuous
 62
     7
370
    25
100
AcDbSpline
210
0.0
220
0.0
230
1.0
 70
     8
 71
     3
 72
    11
 73
     7
 74
     0
 42
0.00000001
 43
0.00000001
 40
0.0
 40
0.0
 40
0.0
 40
0.0
 40
0.2802644269057412
 40
0.5606017207836216
 40
0.7802856988122208
 40
1.0
 40
1.0
 40
1.0
 40
1.0
 10
165.9379507910901
 20
58.22283029064688
 30
0.0
 10
166.608645289379
 20
57.37809132257429
 30
0.0
 10
167.9502086622696
 20
55.68839375965901
 30
0.0
 10
169.3737442419195
 20
53.03437283934587
 30
0.0
 10
170.4055275537794
 20
50.46129052618526
 30
0.0
 10
170.7990903775914
 20
48.81747941211889
 30
0.0
 10
170.9958853695098
 20
47.99551713485212
 30
0.0
  0
SPLINE
  5
6A
330
1F
100
AcDbEntity
  8
0
  6
Continuous
 62
     7
370
    25
100
AcDbSpline
210
0.0
220
0.0
230
1.0
 70
     8
 71
     3
 72
     9
 73
     5
 74
     0
 42
0.00000001
 43
0.00000001
 40
0.0
 40
0.0
 40
0.0
 40
0.0
 40
0.5628072449466168
 40
1.0
 40
1.0
 40
1.0
 40
1.0
 10
170.9958853695098
 20
47.99551713485211
 30
0.0
 10
171.1649721404223
 20
46.92942077508172
 30
0.0
 10
171.4654067429097
 20
45.03517302091232
 30
0.0
 10
171.4437625861391
 20
43.11850860948138
 30
0.0
 10
171.4342999176096
 20
42.2805568149351
 30
0.0
  0
SPLINE
  5
6C
330
1F
100
AcDbEntity
  8
0
  6
Continuous
 62
     7
370
    25
100
AcDbSpline
210
0.0
220
0.0
230
1.0
 70
     8
 71
     3
 72
    10
 73
     6
 74
     0
 42
0.00000001
 43
0.00000001
 40
0.0
 40
0.0
 40
0.0
 40
0.0
 40
0.2801834238888535
 40
0.5602735007480403
 40
1.0
 40
1.0
 40
1.0
 40
1.0
 10
170.8321030053194
 20
36.69807331788471
 30
0.0
 10
170.6094058115942
 20
35.67347052410641
 30
0.0
 10
170.1640856188312
 20
33.62460629731292
 30
0.0
 10
168.9823931309412
 20
30.06399742115777
 30
0.0
 10
167.7801761640173
 20
27.65055869653363
 30
0.0
 10
167.0457575971891
 20
26.17622065437353
 30
0.0
  0
SPLINE
  5
6D
330
1F
100
AcDbEntity
  8
0
  6
Continuous
 62
     7
370
    25
100
AcDbSpline
210
0.0
220
0.0
230
1.0
 70
     8
 71
     3
 72
    13
 73
     9
 74
     0
 42
0.00000001
 43
0.00000001
 40
0.0
 40
0.0
 40
0.0
 40
0.0
 40
0.166791646616497
 40
0.3330700813053897
 40
0.4988443627652948
 40
0.6670987550730938
 40
0.8327865853706715
 40
1.0
 40
1.0
 40
1.0
 40
1.0
 10
167.045757597189
 20
26.17622065437354
 30
0.0
 10
166.4135976315775
 20
25.0953488671103
 30
0.0
 10
165.1512228339452
 20
22.93693109639167
 30
0.0
 10
162.8648269960176
 20
19.96277391662828
 30
0.0
 10
160.2969312559035
 20
17.21786746191567
 30
0.0
 10
157.4525248453978
 20
14.76742717852162
 30
0.0
 10
154.3565841213041
 20
12.61311315121548
 30
0.0
 10
152.116116454676
 20
11.5037312957817
 30
0.0
 10
150.9907489331886
 20
10.94649838962169
 30
0.0
  0
SPLINE
  5
6E
330
1F
100
AcDbEntity
  8
0
  6
Continuous
 62
     7
370
    25
100
AcDbSpline
210
0.0
220
0.0
230
1.0
 70
     8
 71
     3
 72
    22
 73
    18
 74
     0
 42
0.00000001
 43
0.00000001
 40
0.0
 40
0.0
 40
0.0
 40
0.0
 40
0.0000182485774791
 40
0.0000502743401842
 40
0.000155914011721
 40
0.0005339020374347
 40
0.0019572253524402
 40
0.0039138220089334
 40
0.0078269460841856
 40
0.0156529185816606
 40
0.0313037715314196
 40
0.0626011968141333
 40
0.1251796769581863
 40
0.2502780945938838
 40
0.5003141711248391
 40
0.750251226749877
 40
1.0
 40
1.0
 40
1.0
 40
1.0
 10
150.9907489331886
 20
10.94649838962169
 30
0.0
 10
150.9906820392121
 20
10.9464817247372
 30
0.0
 10
150.990497748106
 20
10.94643581342858
 30
0.0
 10
150.9899459039078
 20
10.94622836466645
 30
0.0
 10
150.9881391290585
 20
10.94550581205472
 30
0.0
 10
150.9815411094227
 20
10.94261790234635
 30
0.0
 10
150.9686126463486
 20
10.93677902820796
 30
0.0
 10
150.9435379103755
 20
10.92539951696519
 30
0.0
 10
150.8964137411573
 20
10.90411688822055
 30
0.0
 10
150.8020885206634
 20
10.86172997462399
 30
0.0
 10
150.6130883574066
 20
10.77779310658075
 30
0.0
 10
150.233735493956
 20
10.61318341881675
 30
0.0
 10
149.4696990591772
 20
10.29720444984614
 30
0.0
 10
147.9212570637768
 20
9.717987370333498
 30
0.0
 10
145.6549055310128
 20
9.049727988526616
 30
0.0
 10
142.8736251773881
 20
8.489930978084551
 30
0.0
 10
140.9912532026142
 20
8.344100289815824
 30
0.0
 10
140.0504218555285
 20
8.271212420293244
 30
0.0
  0
SPLINE
  5
70
330
1F
100
AcDbEntity
  8
0
  6
Continuous
 62
     7
370
    25
100
AcDbSpline
210
0.0
220
0.0
230
1.0
 70
     8
 71
     3
 72
    11
 73
     7
 74
     0
 42
0.00000001
 43
0.00000001
 40
0.0
 40
0.0
 40
0.0
 40
0.0
 40
0.2800883629701365
 40
0.5602188504327392
 40
0.78014320516766
 40
1.0
 40
1.0
 40
1.0
 40
1.0
 10
28.12363525926851
 20
8.271212438894882
 30
0.0
 10
27.06842909800644
 20
8.35827314091978
 30
0.0
 10
24.95785807547951
 20
8.532407638651318
 30
0.0
 10
22.07774515090989
 20
9.1905120672085
 30
0.0
 10
19.4834704924533
 20
10.01404669968525
 30
0.0
 10
17.96112114832789
 20
10.68021153546958
 30
0.0
 10
17.2000634091686
 20
11.01324278469359
 30
0.0
  0
SPLINE
  5
71
330
1F
100
AcDbEntity
  8
0
  6
Continuous
 62
     7
370
    25
100
AcDbSpline
210
0.0
220
0.0
230
1.0
 70
     8
 71
     3
 72
    10
 73
     6
 74
     0
 42
0.00000001
 43
0.00000001
 40
0.0
 40
0.0
 40
0.0
 40
0.0
 40
0.2816034027173009
 40
0.5608240667676369
 40
1.0
 40
1.0
 40
1.0
 40
1.0
 10
17.2000634091686
 20
11.01324278469359
 30
0.0
 10
16.25864463070473
 20
11.48491046235994
 30
0.0
 10
14.38377272654824
 20
12.42425488291454
 30
0.0
 10
11.24794772958881
 20
14.47941605161987
 30
0.0
 10
9.238611329141708
 20
16.26582769049672
 30
0.0
 10
8.010247787078804
 20
17.35791109068042
 30
0.0
  0
SPLINE
  5
72
330
1F
100
AcDbEntity
  8
0
  6
Continuous
 62
     7
370
    25
100
AcDbSpline
210
0.0
220
0.0
230
1.0
 70
     8
 71
     3
 72
    10
 73
     6
 74
     0
 42
0.00000001
 43
0.00000001
 40
0.0
 40
0.0
 40
0.0
 40
0.0
 40
0.2804815976977699
 40
0.5599394111790869
 40
1.0
 40
1.0
 40
1.0
 40
1.0
 10
8.010247787078804
 20
17.35791109068042
 30
0.0
 10
7.271907413497036
 20
18.10111072585616
 30
0.0
 10
5.797921678152629
 20
19.58479724762659
 30
0.0
 10
3.428400371340956
 20
22.48328242813457
 30
0.0
 10
2.033194604792815
 20
24.78355671930082
 30
0.0
 10
1.179880680939063
 20
26.19041449497593
 30
0.0
  0
SPLINE
  5
73
330
1F
100
AcDbEntity
  8
0
  6
Continuous
 62
     7
370
    25
100
AcDbSpline
210
0.0
220
0.0
230
1.0
 70
     8
 71
     3
 72
    11
 73
     7
 74
     0
 42
0.00000001
 43
0.00000001
 40
0.0
 40
0.0
 40
0.0
 40
0.0
 40
0.2499614372890864
 40
0.499907382405051
 40
0.7503714566962691
 40
1.0
 40
1.0
 40
1.0
 40
1.0
 10
1.179880680939063
 20
26.19041449497593
 30
0.0
 10
0.5402809555169336
 20
27.4451398488471
 30
0.0
 10
-0.738878854053937
 20
29.95451279090439
 30
0.0
 10
-2.063430823142004
 20
33.97742057439635
 30
0.0
 10
-2.965854770797458
 20
38.11305717529353
 30
0.0
 10
-3.148147252245368
 20
40.92462392028221
 30
0.0
 10
-3.239141210160418
 20
42.3280585767026
 30
0.0
  0
SPLINE
  5
74
330
1F
100
AcDbEntity
  8
0
  6
Continuous
 62
     7
370
    25
100
AcDbSpline
210
0.0
220
0.0
230
1.0
 70
     8
 71
     3
 72
     9
 73
     5
 74
     0
 42
0.00000001
 43
0.00000001
 40
0.0
 40
0.0
 40
0.0
 40
0.0
 40
0.4960567967931537
 40
1.0
 40
1.0
 40
1.0
 40
1.0
 10
-3.239141210160418
 20
42.3280585767026
 30
0.0
 10
-3.248261318471974
 20
43.28052969172762
 30
0.0
 10
-3.266646528332043
 20
45.20061449085234
 30
0.0
 10
-2.952757633415515
 20
47.09503508317734
 30
0.0
 10
-2.794575458260215
 20
48.04971546469461
 30
0.0
  0
SPLINE
  5
75
330
1F
100
AcDbEntity
  8
0
  6
Continuous
 62
     7
370
    25
100
AcDbSpline
210
0.0
220
0.0
230
1.0
 70
     8
 71
     3
 72
    11
 73
     7
 74
     0
 42
0.00000001
 43
0.00000001
 40
0.0
 40
0.0
 40
0.0
 40
0.0
 40
0.2806011404706172
 40
0.5611117483206324
 40
0.7810806253735249
 40
1.0
 40
1.0
 40
1.0
 40
1.0
 10
-2.794575458260215
 20
48.04971546469461
 30
0.0
 10
-2.530071425753802
 20
49.09555027001819
 30
0.0
 10
-2.00114869982114
 20
51.18688245450419
 30
0.0
 10
-0.7314312343399687
 20
53.91782073734322
 30
0.0
 10
0.6920642269588329
 20
56.28969207989562
 30
0.0
 10
1.750977798620962
 20
57.60163371523203
 30
0.0
 10
2.279168507770129
 20
58.25603592639924
 30
0.0
  0
SPLINE
  5
188
330
1F
100
AcDbEntity
  8
0
  6
Continuous
 62
     7
370
    25
100
AcDbSpline
210
0.0
220
0.0
230
1.0
 70
     8
 71
     3
 72
    11
 73
     7
 74
     0
 42
0.00000001
 43
0.00000001
 40
0.0
 40
0.0
 40
0.0
 40
0.0
 40
0.2500005361597417
 40
0.5000007148796539
 40
0.7500005361597405
 40
1.0
 40
1.0
 40
1.0
 40
1.0
 10
28.7948070459163
 20
13.86434806658199
 30
0.0
 10
28.81438316699751
 20
13.69360659461125
 30
0.0
 10
28.85353538117086
 20
13.35212389478845
 30
0.0
 10
29.15483525394141
 20
12.92141461760924
 30
0.0
 10
29.58552588132088
 20
12.62008937128866
 30
0.0
 10
29.92700529532879
 20
12.58091693581135
 30
0.0
 10
30.09774488027424
 20
12.56133073207451
 30
0.0
  0
SPLINE
  5
189
330
1F
100
AcDbEntity
  8
0
  6
Continuous
 62
     7
370
    25
100
AcDbSpline
210
0.0
220
0.0
230
1.0
 70
     8
 71
     3
 72
    11
 73
     7
 74
     0
 42
0.00000001
 43
0.00000001
 40
0.0
 40
0.0
 40
0.0
 40
0.0
 40
0.2500005361066099
 40
0.5000007148088181
 40
0.7500005361066134
 40
1.0
 40
1.0
 40
1.0
 40
1.0
 10
30.09774488027424
 20
12.56133073207451
 30
0.0
 10
30.26848065560098
 20
12.58091731620892
 30
0.0
 10
30.6099519621681
 20
12.62009045647647
 30
0.0
 10
31.04063312958335
 20
12.92140585302284
 30
0.0
 10
31.34192990181282
 20
13.35209918008463
 30
0.0
 10
31.38108851973892
 20
13.69357112899199
 30
0.0
 10
31.40066781470649
 20
13.8643069814019
 30
0.0
  0
SPLINE
  5
18A
330
1F
100
AcDbEntity
  8
0
  6
Continuous
 62
     7
370
    25
100
AcDbSpline
210
0.0
220
0.0
230
1.0
 70
     8
 71
     3
 72
    15
 73
    11
 74
     0
 42
0.00000001
 43
0.00000001
 40
0.0
 40
0.0
 40
0.0
 40
0.0
 40
0.124999374511303
 40
0.2499989277336598
 40
0.3749986596670761
 40
0.4999985703115479
 40
0.6249986596670762
 40
0.7499989277336607
 40
0.8749993745113032
 40
1.0
 40
1.0
 40
1.0
 40
1.0
 10
31.40066781471649
 20
13.8643069814019
 30
0.0
 10
31.38107851665079
 20
14.03483003697577
 30
0.0
 10
31.34189989251265
 20
14.37587639191957
 30
0.0
 10
31.04060432244147
 20
14.80956133418986
 30
0.0
 10
30.60994289856038
 20
15.09934359526904
 30
0.0
 10
30.09776583098922
 20
15.20110822947552
 30
0.0
 10
29.58558411624402
 20
15.09936318600766
 30
0.0
 10
29.1549096665233
 20
14.80959627721957
 30
0.0
 10
28.85359526120726
 20
14.37591984492614
 30
0.0
 10
28.81440312702532
 20
14.0348720739617
 30
0.0
 10
28.7948070459263
 20
13.86434806658199
 30
0.0
  0
SPLINE
  5
18F
330
1F
100
AcDbEntity
  8
0
  6
Continuous
 62
     7
370
    25
100
AcDbSpline
210
0.0
220
0.0
230
1.0
 70
     8
 71
     3
 72
    15
 73
    11
 74
     0
 42
0.00000001
 43
0.00000001
 40
0.0
 40
0.0
 40
0.0
 40
0.0
 40
0.1256291439006909
 40
0.2502917778412536
 40
0.3752227371981931
 40
0.5000933291081447
 40
0.6250006433311888
 40
0.7499399602153894
 40
0.8745382818955061
 40
1.0
 40
1.0
 40
1.0
 40
1.0
 10
51.15920748445905
 20
25.18356693707573
 30
0.0
 10
51.17896516670633
 20
25.01234024963016
 30
0.0
 10
51.21832852828111
 20
24.67120418291861
 30
0.0
 10
51.5203548157078
 20
24.2374646717376
 30
0.0
 10
51.95230004318915
 20
23.95282909270518
 30
0.0
 10
52.46296003553435
 20
23.84661479974558
 30
0.0
 10
52.97340352780051
 20
23.95370005702713
 30
0.0
 10
53.40501829310661
 20
24.23895840435522
 30
0.0
 10
53.7055992351865
 20
24.67314908116288
 30
0.0
 10
53.74526316851385
 20
25.01383918071439
 30
0.0
 10
53.76516361012906
 20
25.18477239046569
 30
0.0
  0
SPLINE
  5
190
330
1F
100
AcDbEntity
  8
0
  6
Continuous
 62
     7
370
    25
100
AcDbSpline
210
0.0
220
0.0
230
1.0
 70
     8
 71
     3
 72
    15
 73
    11
 74
     0
 42
0.00000001
 43
0.00000001
 40
0.0
 40
0.0
 40
0.0
 40
0.0
 40
0.1253451589852356
 40
0.2499612664795641
 40
0.3747875823911875
 40
0.4994248893121592
 40
0.6242413749307294
 40
0.7493891607639941
 40
0.8737490723350311
 40
1.0
 40
1.0
 40
1.0
 40
1.0
 10
53.76516361012906
 20
25.18477239046569
 30
0.0
 10
53.74504868172091
 20
25.3555990177208
 30
0.0
 10
53.70493582039659
 20
25.69625868453847
 30
0.0
 10
53.40507170824513
 20
26.13075146491759
 30
0.0
 10
52.97431307051195
 20
26.41702992709929
 30
0.0
 10
52.46374749515661
 20
26.52404413290513
 30
0.0
 10
51.95342166233849
 20
26.41446680671514
 30
0.0
 10
51.52238746706296
 20
26.13018684756512
 30
0.0
 10
51.21391812857168
 20
25.69890484866423
 30
0.0
 10
51.17753587481068
 20
25.35620819472836
 30
0.0
 10
51.15920748445905
 20
25.18356693707573
 30
0.0
  0
SPLINE
  5
195
330
1F
100
AcDbEntity
  8
0
  6
Continuous
 62
     7
370
    25
100
AcDbSpline
210
0.0
220
0.0
230
1.0
 70
     8
 71
     3
 72
    13
 73
     9
 74
     0
 42
0.00000001
 43
0.00000001
 40
0.0
 40
0.0
 40
0.0
 40
0.0
 40
0.1672068924252114
 40
0.3329223080374772
 40
0.5011553013107363
 40
0.6669507323476506
 40
0.8332190777716254
 40
1.0
 40
1.0
 40
1.0
 40
1.0
 10
150.9906274349308
 20
10.9467635765288
 30
0.0
 10
152.1160137125115
 20
11.50385413614392
 30
0.0
 10
154.3567478804133
 20
12.61306603646025
 30
0.0
 10
157.4525925778138
 20
14.76753891273198
 30
0.0
 10
160.2971624749765
 20
17.21808057682399
 30
0.0
 10
162.8650067160218
 20
19.96293642998089
 30
0.0
 10
165.1513135473517
 20
22.93715679400326
 30
0.0
 10
166.4136286806506
 20
25.09542439222878
 30
0.0
 10
167.0457576252913
 20
26.17621902356064
 30
0.0
  0
SPLINE
  5
197
330
1F
100
AcDbEntity
  8
0
  6
Continuous
 62
     7
370
    25
100
AcDbSpline
210
0.0
220
0.0
230
1.0
 70
     8
 71
     3
 72
    10
 73
     6
 74
     0
 42
0.00000001
 43
0.00000001
 40
0.0
 40
0.0
 40
0.0
 40
0.0
 40
0.2799061684615643
 40
0.5599812331501138
 40
1.0
 40
1.0
 40
1.0
 40
1.0
 10
167.0457576252913
 20
26.17621902356064
 30
0.0
 10
167.5247403490863
 20
27.10766966572198
 30
0.0
 10
168.4829948162978
 20
28.97113299017386
 30
0.0
 10
169.8509458180565
 20
32.46427240113799
 30
0.0
 10
170.4599602019364
 20
35.09223520024286
 30
0.0
 10
170.8321030345116
 20
36.69807168924461
 30
0.0
  0
SPLINE
  5
19B
330
1F
100
AcDbEntity
  8
0
  6
Continuous
 62
     7
370
    25
100
AcDbSpline
210
0.0
220
0.0
230
1.0
 70
     8
 71
     3
 72
    11
 73
     7
 74
     0
 42
0.00000001
 43
0.00000001
 40
0.0
 40
0.0
 40
0.0
 40
0.0
 40
0.2496287512495586
 40
0.5000927583591118
 40
0.7500386328996913
 40
1.0
 40
1.0
 40
1.0
 40
1.0
 10
-3.239140325198189
 20
42.3280499646087
 30
0.0
 10
-3.148146301321278
 20
40.9246147173421
 30
0.0
 10
-2.965853788271342
 20
38.11304833938788
 30
0.0
 10
-2.063429102598768
 20
33.97741328359395
 30
0.0
 10
-0.73887758495432
 20
29.95450847773491
 30
0.0
 10
0.5402813968666959
 20
27.44513732309772
 30
0.0
 10
1.179880708901293
 20
26.19041286198303
 30
0.0
  0
SPLINE
  5
19E
330
1F
100
AcDbEntity
  8
0
  6
Continuous
 62
     7
370
    25
100
AcDbSpline
210
0.0
220
0.0
230
1.0
 70
     8
 71
     3
 72
    10
 73
     6
 74
     0
 42
0.00000001
 43
0.00000001
 40
0.0
 40
0.0
 40
0.0
 40
0.0
 40
0.2805297858704395
 40
0.5599727765461212
 40
1.0
 40
1.0
 40
1.0
 40
1.0
 10
1.179880708901293
 20
26.19041286198303
 30
0.0
 10
1.711532863659618
 20
25.28738894752552
 30
0.0
 10
2.772777509510687
 20
23.48483950666204
 30
0.0
 10
4.992245124628022
 20
20.46971431773637
 30
0.0
 10
6.864921140234181
 20
18.53883389016739
 30
0.0
 10
8.010247814491015
 20
17.35790945899752
 30
0.0
  0
SPLINE
  5
1AE
330
1F
100
AcDbEntity
  8
0
  6
Continuous
 62
     7
370
    25
100
AcDbSpline
210
0.0
220
0.0
230
1.0
 70
     8
 71
     3
 72
    11
 73
     7
 74
     0
 42
0.00000001
 43
0.00000001
 40
0.0
 40
0.0
 40
0.0
 40
0.0
 40
0.2797406539299919
 40
0.5597572376861631
 40
0.7798756397993719
 40
1.0
 40
1.0
 40
1.0
 40
1.0
 10
17.20006343906082
 20
11.01324115254069
 30
0.0
 10
18.17135131809157
 20
10.59541166450125
 30
0.0
 10
20.11488513245224
 20
9.759340550907186
 30
0.0
 10
22.95914312055145
 20
8.966772458625844
 30
0.0
 10
25.63536336621024
 20
8.459799829811127
 30
0.0
 10
27.29420382866021
 20
8.334074381452721
 30
0.0
 10
28.12363528496072
 20
8.27121080651199
 30
0.0
  0
SPLINE
  5
1AF
330
1F
100
AcDbEntity
  8
0
  6
Continuous
 62
     7
370
    25
100
AcDbSpline
210
0.0
220
0.0
230
1.0
 70
     8
 71
     3
 72
    11
 73
     7
 74
     0
 42
0.00000001
 43
0.00000001
 40
0.0
 40
0.0
 40
0.0
 40
0.0
 40
0.2799184549923134
 40
0.5587610300431141
 40
0.7784808766784375
 40
1.0
 40
1.0
 40
1.0
 40
1.0
 10
8.010247814491015
 20
17.35790945899752
 30
0.0
 10
8.782940463514633
 20
16.65114598261911
 30
0.0
 10
10.32535588048682
 20
15.24033550901564
 30
0.0
 10
12.68495425602166
 20
13.52753426659994
 30
0.0
 10
14.97546626966183
 20
12.10728535103148
 30
0.0
 10
16.45651791361696
 20
11.37891260066422
 30
0.0
 10
17.20006343906082
 20
11.01324115254069
 30
0.0
  0
LINE
  5
2E3
330
1F
100
AcDbEntity
  8
0
  6
Continuous
 62
     7
370
    25
100
AcDbLine
 10
-3.2533787447
 20
43.2056870687
 30
0.0
 11
-3.2533787166
 21
43.2056853224
 31
0.0
  0
LINE
  5
2E4
330
1F
100
AcDbEntity
  8
0
  6
Continuous
 62
     7
370
    25
100
AcDbLine
 10
171.4428470302
 20
43.6742058545
 30
0.0
 11
171.4428470025
 21
43.6742074865
 31
0.0
  0
LINE
  5
2E5
330
1F
100
AcDbEntity
  8
0
  6
Continuous
 62
     7
370
    25
100
AcDbLine
 10
22.5047413111
 20
67.2683720635
 30
0.0
 11
145.6693134993
 21
67.2683720434
 31
0.0
  0
LINE
  5
2E6
330
1F
100
AcDbEntity
  8
0
  6
Continuous
 62
     7
370
    25
100
AcDbLine
 10
140.0504218555
 20
8.2712124203
 30
0.0
 11
28.1236352593
 21
8.2712124389
 31
0.0
  0
LINE
  5
2E7
330
1F
100
AcDbEntity
  8
0
  6
Continuous
 62
     7
370
    25
100
AcDbLine
 10
2.1777737905
 20
34.8819008725
 30
0.0
 11
5.0998885181
 21
30.8236232841
 31
0.0
  0
LINE
  5
2E8
330
1F
100
AcDbEntity
  8
0
  6
Continuous
 62
     7
370
    25
100
AcDbLine
 10
5.0998885181
 20
30.8236232841
 30
0.0
 11
6.6417758663
 21
31.9338410128
 31
0.0
  0
LINE
  5
2E9
330
1F
100
AcDbEntity
  8
0
  6
Continuous
 62
     7
370
    25
100
AcDbLine
 10
6.6417758941
 20
31.9338393804
 30
0.0
 11
3.7005893822
 21
36.018605748
 31
0.0
  0
LINE
  5
2EA
330
1F
100
AcDbEntity
  8
0
  6
Continuous
 62
     7
370
    25
100
AcDbLine
 10
3.7005893822
 20
36.018605748
 30
0.0
 11
2.1777737905
 21
34.8819008725
 31
0.0
  0
LINE
  5
2EB
330
1F
100
AcDbEntity
  8
0
  6
Continuous
 62
     7
370
    25
100
AcDbLine
 10
56.038324591
 20
56.5831868331
 30
0.0
 11
56.0383246188
 21
56.2831852007
 31
0.0
  0
LINE
  5
2EC
330
1F
100
AcDbEntity
  8
0
  6
Continuous
 62
     7
370
    25
100
AcDbLine
 10
56.038324591
 20
56.2831868331
 30
0.0
 11
56.638324591
 21
56.2831868331
 31
0.0
  0
LINE
  5
2ED
330
1F
100
AcDbEntity
  8
0
  6
Continuous
 62
     7
370
    25
100
AcDbLine
 10
56.638324591
 20
56.2831868331
 30
0.0
 11
56.638324591
 21
56.5831868331
 31
0.0
  0
LINE
  5
2EE
330
1F
100
AcDbEntity
  8
0
  6
Continuous
 62
     7
370
    25
100
AcDbLine
 10
56.638324591
 20
56.5831868331
 30
0.0
 11
56.038324591
 21
56.5831868331
 31
0.0
  0
LINE
  5
2EF
330
1F
100
AcDbEntity
  8
0
  6
Continuous
 62
     7
370
    25
100
AcDbLine
 10
58.578324591
 20
56.5831868331
 30
0.0
 11
58.5783246188
 21
56.2831852007
 31
0.0
  0
LINE
  5
2F0
330
1F
100
AcDbEntity
  8
0
  6
Continuous
 62
     7
370
    25
100
AcDbLine
 10
58.578324591
 20
56.2831868331
 30
0.0
 11
59.178324591
 21
56.2831868331
 31
0.0
  0
LINE
  5
2F1
330
1F
100
AcDbEntity
  8
0
  6
Continuous
 62
     7
370
    25
100
AcDbLine
 10
59.178324591
 20
56.2831868331
 30
0.0
 11
59.178324591
 21
56.5831868331
 31
0.0
  0
LINE
  5
2F2
330
1F
100
AcDbEntity
  8
0
  6
Continuous
 62
     7
370
    25
100
AcDbLine
 10
59.178324591
 20
56.5831868331
 30
0.0
 11
58.578324591
 21
56.5831868331
 31
0.0
  0
LINE
  5
2F3
330
1F
100
AcDbEntity
  8
0
  6
Continuous
 62
     7
370
    25
100
AcDbLine
 10
61.118324591
 20
56.5831868331
 30
0.0
 11
61.1183246188
 21
56.2831852007
 31
0.0
  0
LINE
  5
2F4
330
1F
100
AcDbEntity
  8
0
  6
Continuous
 62
     7
370
    25
100
AcDbLine
 10
61.118324591
 20
56.2831868331
 30
0.0
 11
61.718324591
 21
56.2831868331
 31
0.0
  0
LINE
  5
2F5
330
1F
100
AcDbEntity
  8
0
  6
Continuous
 62
     7
370
    25
100
AcDbLine
 10
61.718324591
 20
56.2831868331
 30
0.0
 11
61.718324591
 21
56.5831868331
 31
0.0
  0
LINE
  5
2F6
330
1F
100
AcDbEntity
  8
0
  6
Continuous
 62
     7
370
    25
100
AcDbLine
 10
61.718324591
 20
56.5831868331
 30
0.0
 11
61.118324591
 21
56.5831868331
 31
0.0
  0
LINE
  5
2F7
330
1F
100
AcDbEntity
  8
0
  6
Continuous
 62
     7
370
    25
100
AcDbLine
 10
63.658324591
 20
56.5831868331
 30
0.0
 11
63.6583246188
 21
56.2831852007
 31
0.0
  0
LINE
  5
2F8
330
1F
100
AcDbEntity
  8
0
  6
Continuous
 62
     7
370
    25
100
AcDbLine
 10
63.658324591
 20
56.2831868331
 30
0.0
 11
64.258324591
 21
56.2831868331
 31
0.0
  0
LINE
  5
2F9
330
1F
100
AcDbEntity
  8
0
  6
Continuous
 62
     7
370
    25
100
AcDbLine
 10
64.258324591
 20
56.2831868331
 30
0.0
 11
64.258324591
 21
56.5831868331
 31
0.0
  0
LINE
  5
2FA
330
1F
100
AcDbEntity
  8
0
  6
Continuous
 62
     7
370
    25
100
AcDbLine
 10
64.258324591
 20
56.5831868331
 30
0.0
 11
63.658324591
 21
56.5831868331
 31
0.0
  0
LINE
  5
2FB
330
1F
100
AcDbEntity
  8
0
  6
Continuous
 62
     7
370
    25
100
AcDbLine
 10
66.198324591
 20
56.5831868331
 30
0.0
 11
66.1983246188
 21
56.2831852007
 31
0.0
  0
LINE
  5
2FC
330
1F
100
AcDbEntity
  8
0
  6
Continuous
 62
     7
370
    25
100
AcDbLine
 10
66.198324591
 20
56.2831868331
 30
0.0
 11
66.798324591
 21
56.2831868331
 31
0.0
  0
LINE
  5
2FD
330
1F
100
AcDbEntity
  8
0
  6
Continuous
 62
     7
370
    25
100
AcDbLine
 10
66.798324591
 20
56.2831868331
 30
0.0
 11
66.798324591
 21
56.5831868331
 31
0.0
  0
LINE
  5
2FE
330
1F
100
AcDbEntity
  8
0
  6
Continuous
 62
     7
370
    25
100
AcDbLine
 10
66.798324591
 20
56.5831868331
 30
0.0
 11
66.198324591
 21
56.5831868331
 31
0.0
  0
LINE
  5
2FF
330
1F
100
AcDbEntity
  8
0
  6
Continuous
 62
     7
370
    25
100
AcDbLine
 10
68.738324591
 20
56.5831868331
 30
0.0
 11
68.7383246188
 21
56.2831852007
 31
0.0
  0
LINE
  5
300
330
1F
100
AcDbEntity
  8
0
  6
Continuous
 62
     7
370
    25
100
AcDbLine
 10
68.738324591
 20
56.2831868331
 30
0.0
 11
69.338324591
 21
56.2831868331
 31
0.0
  0
LINE
  5
301
330
1F
100
AcDbEntity
  8
0
  6
Continuous
 62
     7
370
    25
100
AcDbLine
 10
69.338324591
 20
56.2831868331
 30
0.0
 11
69.338324591
 21
56.5831868331
 31
0.0
  0
LINE
  5
302
330
1F
100
AcDbEntity
  8
0
  6
Continuous
 62
     7
370
    25
100
AcDbLine
 10
69.338324591
 20
56.5831868331
 30
0.0
 11
68.738324591
 21
56.5831868331
 31
0.0
  0
LINE
  5
303
330
1F
100
AcDbEntity
  8
0
  6
Continuous
 62
     7
370
    25
100
AcDbLine
 10
71.278324591
 20
56.5831868331
 30
0.0
 11
71.2783246188
 21
56.2831852007
 31
0.0
  0
LINE
  5
304
330
1F
100
AcDbEntity
  8
0
  6
Continuous
 62
     7
370
    25
100
AcDbLine
 10
71.278324591
 20
56.2831868331
 30
0.0
 11
71.878324591
 21
56.2831868331
 31
0.0
  0
LINE
  5
305
330
1F
100
AcDbEntity
  8
0
  6
Continuous
 62
     7
370
    25
100
AcDbLine
 10
71.878324591
 20
56.2831868331
 30
0.0
 11
71.878324591
 21
56.5831868331
 31
0.0
  0
LINE
  5
306
330
1F
100
AcDbEntity
  8
0
  6
Continuous
 62
     7
370
    25
100
AcDbLine
 10
71.878324591
 20
56.5831868331
 30
0.0
 11
71.278324591
 21
56.5831868331
 31
0.0
  0
LINE
  5
307
330
1F
100
AcDbEntity
  8
0
  6
Continuous
 62
     7
370
    25
100
AcDbLine
 10
73.818324591
 20
56.5831868331
 30
0.0
 11
73.8183246188
 21
56.2831852007
 31
0.0
  0
LINE
  5
308
330
1F
100
AcDbEntity
  8
0
  6
Continuous
 62
     7
370
    25
100
AcDbLine
 10
73.818324591
 20
56.2831868331
 30
0.0
 11
74.418324591
 21
56.2831868331
 31
0.0
  0
LINE
  5
309
330
1F
100
AcDbEntity
  8
0
  6
Continuous
 62
     7
370
    25
100
AcDbLine
 10
74.418324591
 20
56.2831868331
 30
0.0
 11
74.418324591
 21
56.5831868331
 31
0.0
  0
LINE
  5
30A
330
1F
100
AcDbEntity
  8
0
  6
Continuous
 62
     7
370
    25
100
AcDbLine
 10
74.418324591
 20
56.5831868331
 30
0.0
 11
73.818324591
 21
56.5831868331
 31
0.0
  0
LINE
  5
30B
330
1F
100
AcDbEntity
  8
0
  6
Continuous
 62
     7
370
    25
100
AcDbLine
 10
76.358324591
 20
56.5831868331
 30
0.0
 11
76.3583246188
 21
56.2831852007
 31
0.0
  0
LINE
  5
30C
330
1F
100
AcDbEntity
  8
0
  6
Continuous
 62
     7
370
    25
100
AcDbLine
 10
76.358324591
 20
56.2831868331
 30
0.0
 11
76.958324591
 21
56.2831868331
 31
0.0
  0
LINE
  5
30D
330
1F
100
AcDbEntity
  8
0
  6
Continuous
 62
     7
370
    25
100
AcDbLine
 10
76.958324591
 20
56.2831868331
 30
0.0
 11
76.958324591
 21
56.5831868331
 31
0.0
  0
LINE
  5
30E
330
1F
100
AcDbEntity
  8
0
  6
Continuous
 62
     7
370
    25
100
AcDbLine
 10
76.958324591
 20
56.5831868331
 30
0.0
 11
76.358324591
 21
56.5831868331
 31
0.0
  0
LINE
  5
30F
330
1F
100
AcDbEntity
  8
0
  6
Continuous
 62
     7
370
    25
100
AcDbLine
 10
78.898324591
 20
56.5831868331
 30
0.0
 11
78.8983246188
 21
56.2831852007
 31
0.0
  0
LINE
  5
310
330
1F
100
AcDbEntity
  8
0
  6
Continuous
 62
     7
370
    25
100
AcDbLine
 10
78.898324591
 20
56.2831868331
 30
0.0
 11
79.498324591
 21
56.2831868331
 31
0.0
  0
LINE
  5
311
330
1F
100
AcDbEntity
  8
0
  6
Continuous
 62
     7
370
    25
100
AcDbLine
 10
79.498324591
 20
56.2831868331
 30
0.0
 11
79.498324591
 21
56.5831868331
 31
0.0
  0
LINE
  5
312
330
1F
100
AcDbEntity
  8
0
  6
Continuous
 62
     7
370
    25
100
AcDbLine
 10
79.498324591
 20
56.5831868331
 30
0.0
 11
78.898324591
 21
56.5831868331
 31
0.0
  0
LINE
  5
313
330
1F
100
AcDbEntity
  8
0
  6
Continuous
 62
     7
370
    25
100
AcDbLine
 10
81.438324591
 20
56.5831868331
 30
0.0
 11
81.4383246188
 21
56.2831852007
 31
0.0
  0
LINE
  5
314
330
1F
100
AcDbEntity
  8
0
  6
Continuous
 62
     7
370
    25
100
AcDbLine
 10
81.438324591
 20
56.2831868331
 30
0.0
 11
82.038324591
 21
56.2831868331
 31
0.0
  0
LINE
  5
315
330
1F
100
AcDbEntity
  8
0
  6
Continuous
 62
     7
370
    25
100
AcDbLine
 10
82.038324591
 20
56.2831868331
 30
0.0
 11
82.038324591
 21
56.5831868331
 31
0.0
  0
LINE
  5
316
330
1F
100
AcDbEntity
  8
0
  6
Continuous
 62
     7
370
    25
100
AcDbLine
 10
82.038324591
 20
56.5831868331
 30
0.0
 11
81.438324591
 21
56.5831868331
 31
0.0
  0
LINE
  5
317
330
1F
100
AcDbEntity
  8
0
  6
Continuous
 62
     7
370
    25
100
AcDbLine
 10
83.978324591
 20
56.5831868331
 30
0.0
 11
83.9783246188
 21
56.2831852007
 31
0.0
  0
LINE
  5
318
330
1F
100
AcDbEntity
  8
0
  6
Continuous
 62
     7
370
    25
100
AcDbLine
 10
83.978324591
 20
56.2831868331
 30
0.0
 11
84.578324591
 21
56.2831868331
 31
0.0
  0
LINE
  5
319
330
1F
100
AcDbEntity
  8
0
  6
Continuous
 62
     7
370
    25
100
AcDbLine
 10
84.578324591
 20
56.2831868331
 30
0.0
 11
84.578324591
 21
56.5831868331
 31
0.0
  0
LINE
  5
31A
330
1F
100
AcDbEntity
  8
0
  6
Continuous
 62
     7
370
    25
100
AcDbLine
 10
84.578324591
 20
56.5831868331
 30
0.0
 11
83.978324591
 21
56.5831868331
 31
0.0
  0
LINE
  5
31B
330
1F
100
AcDbEntity
  8
0
  6
Continuous
 62
     7
370
    25
100
AcDbLine
 10
86.518324591
 20
56.5831868331
 30
0.0
 11
86.5183246188
 21
56.2831852007
 31
0.0
  0
LINE
  5
31C
330
1F
100
AcDbEntity
  8
0
  6
Continuous
 62
     7
370
    25
100
AcDbLine
 10
86.518324591
 20
56.2831868331
 30
0.0
 11
87.118324591
 21
56.2831868331
 31
0.0
  0
LINE
  5
31D
330
1F
100
AcDbEntity
  8
0
  6
Continuous
 62
     7
370
    25
100
AcDbLine
 10
87.118324591
 20
56.2831868331
 30
0.0
 11
87.118324591
 21
56.5831868331
 31
0.0
  0
LINE
  5
31E
330
1F
100
AcDbEntity
  8
0
  6
Continuous
 62
     7
370
    25
100
AcDbLine
 10
87.118324591
 20
56.5831868331
 30
0.0
 11
86.518324591
 21
56.5831868331
 31
0.0
  0
LINE
  5
31F
330
1F
100
AcDbEntity
  8
0
  6
Continuous
 62
     7
370
    25
100
AcDbLine
 10
89.058324591
 20
56.5831868331
 30
0.0
 11
89.0583246188
 21
56.2831852007
 31
0.0
  0
LINE
  5
320
330
1F
100
AcDbEntity
  8
0
  6
Continuous
 62
     7
370
    25
100
AcDbLine
 10
89.058324591
 20
56.2831868331
 30
0.0
 11
89.658324591
 21
56.2831868331
 31
0.0
  0
LINE
  5
321
330
1F
100
AcDbEntity
  8
0
  6
Continuous
 62
     7
370
    25
100
AcDbLine
 10
89.658324591
 20
56.2831868331
 30
0.0
 11
89.658324591
 21
56.5831868331
 31
0.0
  0
LINE
  5
322
330
1F
100
AcDbEntity
  8
0
  6
Continuous
 62
     7
370
    25
100
AcDbLine
 10
89.658324591
 20
56.5831868331
 30
0.0
 11
89.058324591
 21
56.5831868331
 31
0.0
  0
LINE
  5
323
330
1F
100
AcDbEntity
  8
0
  6
Continuous
 62
     7
370
    25
100
AcDbLine
 10
91.598324591
 20
56.5831868331
 30
0.0
 11
91.5983246188
 21
56.2831852007
 31
0.0
  0
LINE
  5
324
330
1F
100
AcDbEntity
  8
0
  6
Continuous
 62
     7
370
    25
100
AcDbLine
 10
91.598324591
 20
56.2831868331
 30
0.0
 11
92.198324591
 21
56.2831868331
 31
0.0
  0
LINE
  5
325
330
1F
100
AcDbEntity
  8
0
  6
Continuous
 62
     7
370
    25
100
AcDbLine
 10
92.198324591
 20
56.2831868331
 30
0.0
 11
92.198324591
 21
56.5831868331
 31
0.0
  0
LINE
  5
326
330
1F
100
AcDbEntity
  8
0
  6
Continuous
 62
     7
370
    25
100
AcDbLine
 10
92.198324591
 20
56.5831868331
 30
0.0
 11
91.598324591
 21
56.5831868331
 31
0.0
  0
LINE
  5
327
330
1F
100
AcDbEntity
  8
0
  6
Continuous
 62
     7
370
    25
100
AcDbLine
 10
94.138324591
 20
56.5831868331
 30
0.0
 11
94.1383246188
 21
56.2831852007
 31
0.0
  0
LINE
  5
328
330
1F
100
AcDbEntity
  8
0
  6
Continuous
 62
     7
370
    25
100
AcDbLine
 10
94.138324591
 20
56.2831868331
 30
0.0
 11
94.738324591
 21
56.2831868331
 31
0.0
  0
LINE
  5
329
330
1F
100
AcDbEntity
  8
0
  6
Continuous
 62
     7
370
    25
100
AcDbLine
 10
94.738324591
 20
56.2831868331
 30
0.0
 11
94.738324591
 21
56.5831868331
 31
0.0
  0
LINE
  5
32A
330
1F
100
AcDbEntity
  8
0
  6
Continuous
 62
     7
370
    25
100
AcDbLine
 10
94.738324591
 20
56.5831868331
 30
0.0
 11
94.138324591
 21
56.5831868331
 31
0.0
  0
LINE
  5
32B
330
1F
100
AcDbEntity
  8
0
  6
Continuous
 62
     7
370
    25
100
AcDbLine
 10
96.678324591
 20
56.5831868331
 30
0.0
 11
96.6783246188
 21
56.2831852007
 31
0.0
  0
LINE
  5
32C
330
1F
100
AcDbEntity
  8
0
  6
Continuous
 62
     7
370
    25
100
AcDbLine
 10
96.678324591
 20
56.2831868331
 30
0.0
 11
97.278324591
 21
56.2831868331
 31
0.0
  0
LINE
  5
32D
330
1F
100
AcDbEntity
  8
0
  6
Continuous
 62
     7
370
    25
100
AcDbLine
 10
97.278324591
 20
56.2831868331
 30
0.0
 11
97.278324591
 21
56.5831868331
 31
0.0
  0
LINE
  5
32E
330
1F
100
AcDbEntity
  8
0
  6
Continuous
 62
     7
370
    25
100
AcDbLine
 10
97.278324591
 20
56.5831868331
 30
0.0
 11
96.678324591
 21
56.5831868331
 31
0.0
  0
LINE
  5
32F
330
1F
100
AcDbEntity
  8
0
  6
Continuous
 62
     7
370
    25
100
AcDbLine
 10
99.218324591
 20
56.5831868331
 30
0.0
 11
99.2183246188
 21
56.2831852007
 31
0.0
  0
LINE
  5
330
330
1F
100
AcDbEntity
  8
0
  6
Continuous
 62
     7
370
    25
100
AcDbLine
 10
99.218324591
 20
56.2831868331
 30
0.0
 11
99.818324591
 21
56.2831868331
 31
0.0
  0
LINE
  5
331
330
1F
100
AcDbEntity
  8
0
  6
Continuous
 62
     7
370
    25
100
AcDbLine
 10
99.818324591
 20
56.2831868331
 30
0.0
 11
99.818324591
 21
56.5831868331
 31
0.0
  0
LINE
  5
332
330
1F
100
AcDbEntity
  8
0
  6
Continuous
 62
     7
370
    25
100
AcDbLine
 10
99.818324591
 20
56.5831868331
 30
0.0
 11
99.218324591
 21
56.5831868331
 31
0.0
  0
LINE
  5
333
330
1F
100
AcDbEntity
  8
0
  6
Continuous
 62
     7
370
    25
100
AcDbLine
 10
101.758324591
 20
56.5831868331
 30
0.0
 11
101.7583246188
 21
56.2831852007
 31
0.0
  0
LINE
  5
334
330
1F
100
AcDbEntity
  8
0
  6
Continuous
 62
     7
370
    25
100
AcDbLine
 10
101.758324591
 20
56.2831868331
 30
0.0
 11
102.358324591
 21
56.2831868331
 31
0.0
  0
LINE
  5
335
330
1F
100
AcDbEntity
  8
0
  6
Continuous
 62
     7
370
    25
100
AcDbLine
 10
102.358324591
 20
56.2831868331
 30
0.0
 11
102.358324591
 21
56.5831868331
 31
0.0
  0
LINE
  5
336
330
1F
100
AcDbEntity
  8
0
  6
Continuous
 62
     7
370
    25
100
AcDbLine
 10
102.358324591
 20
56.5831868331
 30
0.0
 11
101.758324591
 21
56.5831868331
 31
0.0
  0
LINE
  5
337
330
1F
100
AcDbEntity
  8
0
  6
Continuous
 62
     7
370
    25
100
AcDbLine
 10
104.298324591
 20
56.5831868331
 30
0.0
 11
104.2983246188
 21
56.2831852007
 31
0.0
  0
LINE
  5
338
330
1F
100
AcDbEntity
  8
0
  6
Continuous
 62
     7
370
    25
100
AcDbLine
 10
104.298324591
 20
56.2831868331
 30
0.0
 11
104.898324591
 21
56.2831868331
 31
0.0
  0
LINE
  5
339
330
1F
100
AcDbEntity
  8
0
  6
Continuous
 62
     7
370
    25
100
AcDbLine
 10
104.898324591
 20
56.2831868331
 30
0.0
 11
104.898324591
 21
56.5831868331
 31
0.0
  0
LINE
  5
33A
330
1F
100
AcDbEntity
  8
0
  6
Continuous
 62
     7
370
    25
100
AcDbLine
 10
104.898324591
 20
56.5831868331
 30
0.0
 11
104.298324591
 21
56.5831868331
 31
0.0
  0
LINE
  5
33B
330
1F
100
AcDbEntity
  8
0
  6
Continuous
 62
     7
370
    25
100
AcDbLine
 10
106.838324591
 20
56.5831868331
 30
0.0
 11
106.8383246188
 21
56.2831852007
 31
0.0
  0
LINE
  5
33C
330
1F
100
AcDbEntity
  8
0
  6
Continuous
 62
     7
370
    25
100
AcDbLine
 10
106.838324591
 20
56.2831868331
 30
0.0
 11
107.438324591
 21
56.2831868331
 31
0.0
  0
LINE
  5
33D
330
1F
100
AcDbEntity
  8
0
  6
Continuous
 62
     7
370
    25
100
AcDbLine
 10
107.438324591
 20
56.2831868331
 30
0.0
 11
107.438324591
 21
56.5831868331
 31
0.0
  0
LINE
  5
33E
330
1F
100
AcDbEntity
  8
0
  6
Continuous
 62
     7
370
    25
100
AcDbLine
 10
107.438324591
 20
56.5831868331
 30
0.0
 11
106.838324591
 21
56.5831868331
 31
0.0
  0
LINE
  5
33F
330
1F
100
AcDbEntity
  8
0
  6
Continuous
 62
     7
370
    25
100
AcDbLine
 10
109.378324591
 20
56.5831868331
 30
0.0
 11
109.3783246188
 21
56.2831852007
 31
0.0
  0
LINE
  5
340
330
1F
100
AcDbEntity
  8
0
  6
Continuous
 62
     7
370
    25
100
AcDbLine
 10
109.378324591
 20
56.2831868331
 30
0.0
 11
109.978324591
 21
56.2831868331
 31
0.0
  0
LINE
  5
341
330
1F
100
AcDbEntity
  8
0
  6
Continuous
 62
     7
370
    25
100
AcDbLine
 10
109.978324591
 20
56.2831868331
 30
0.0
 11
109.978324591
 21
56.5831868331
 31
0.0
  0
LINE
  5
342
330
1F
100
AcDbEntity
  8
0
  6
Continuous
 62
     7
370
    25
100
AcDbLine
 10
109.978324591
 20
56.5831868331
 30
0.0
 11
109.378324591
 21
56.5831868331
 31
0.0
  0
LINE
  5
343
330
1F
100
AcDbEntity
  8
0
  6
Continuous
 62
     7
370
    25
100
AcDbLine
 10
111.918324591
 20
56.5831868331
 30
0.0
 11
111.9183246188
 21
56.2831852007
 31
0.0
  0
LINE
  5
344
330
1F
100
AcDbEntity
  8
0
  6
Continuous
 62
     7
370
    25
100
AcDbLine
 10
111.918324591
 20
56.2831868331
 30
0.0
 11
112.518324591
 21
56.2831868331
 31
0.0
  0
LINE
  5
345
330
1F
100
AcDbEntity
  8
0
  6
Continuous
 62
     7
370
    25
100
AcDbLine
 10
112.518324591
 20
56.2831868331
 30
0.0
 11
112.518324591
 21
56.5831868331
 31
0.0
  0
LINE
  5
346
330
1F
100
AcDbEntity
  8
0
  6
Continuous
 62
     7
370
    25
100
AcDbLine
 10
112.518324591
 20
56.5831868331
 30
0.0
 11
111.918324591
 21
56.5831868331
 31
0.0
  0
LINE
  5
347
330
1F
100
AcDbEntity
  8
0
  6
Continuous
 62
     7
370
    25
100
AcDbLine
 10
147.3100881022
 20
38.8862418438
 30
0.0
 11
151.8521060019
 21
38.886244085
 31
0.0
  0
LINE
  5
348
330
1F
100
AcDbEntity
  8
0
  6
Continuous
 62
     7
370
    25
100
AcDbLine
 10
151.8521060019
 20
38.886244085
 30
0.0
 11
151.8521540073
 21
36.1003279118
 31
0.0
  0
LINE
  5
349
330
1F
100
AcDbEntity
  8
0
  6
Continuous
 62
     7
370
    25
100
AcDbLine
 10
151.8521539804
 20
36.1003295445
 30
0.0
 11
153.4027895558
 21
36.1003295429
 31
0.0
  0
LINE
  5
34A
330
1F
100
AcDbEntity
  8
0
  6
Continuous
 62
     7
370
    25
100
AcDbLine
 10
153.4025610608
 20
40.5239693317
 30
0.0
 11
153.4027895558
 21
36.1003295429
 31
0.0
  0
LINE
  5
34B
330
1F
100
AcDbEntity
  8
0
  6
Continuous
 62
     7
370
    25
100
AcDbLine
 10
153.4025610591
 20
40.5239166618
 30
0.0
 11
145.7568285333
 21
40.5241536762
 31
0.0
  0
LINE
  5
34C
330
1F
100
AcDbEntity
  8
0
  6
Continuous
 62
     7
370
    25
100
AcDbLine
 10
145.7568285317
 20
40.5241010068
 30
0.0
 11
145.7570570702
 21
36.1002156257
 31
0.0
  0
LINE
  5
34D
330
1F
100
AcDbEntity
  8
0
  6
Continuous
 62
     7
370
    25
100
AcDbLine
 10
145.7570570462
 20
36.1001851624
 30
0.0
 11
147.3101360771
 21
36.1003295619
 31
0.0
  0
LINE
  5
34E
330
1F
100
AcDbEntity
  8
0
  6
Continuous
 62
     7
370
    25
100
AcDbLine
 10
147.3100881022
 20
38.8862418438
 30
0.0
 11
147.3101360801
 21
36.1002974762
 31
0.0
  0
LINE
  5
34F
330
1F
100
AcDbEntity
  8
0
  6
Continuous
 62
     7
370
    25
100
AcDbLine
 10
155.5689056903
 20
46.6465851417
 30
0.0
 11
150.3935739799
 21
46.6465851541
 31
0.0
  0
LINE
  5
350
330
1F
100
AcDbEntity
  8
0
  6
Continuous
 62
     7
370
    25
100
AcDbLine
 10
150.3935258452
 20
52.0808883647
 30
0.0
 11
150.3935740068
 21
46.646583526
 31
0.0
  0
LINE
  5
351
330
1F
100
AcDbEntity
  8
0
  6
Continuous
 62
     7
370
    25
100
AcDbLine
 10
150.3935258449
 20
52.0808767425
 30
0.0
 11
148.7803753869
 21
52.0809290408
 31
0.0
  0
LINE
  5
352
330
1F
100
AcDbEntity
  8
0
  6
Continuous
 62
     7
370
    25
100
AcDbLine
 10
148.7803753865
 20
52.0809174194
 30
0.0
 11
148.7804235479
 21
46.6466310819
 31
0.0
  0
LINE
  5
353
330
1F
100
AcDbEntity
  8
0
  6
Continuous
 62
     7
370
    25
100
AcDbLine
 10
148.78042352
 20
46.6465975646
 30
0.0
 11
143.6779042764
 21
46.6467557405
 31
0.0
  0
LINE
  5
354
330
1F
100
AcDbEntity
  8
0
  6
Continuous
 62
     7
370
    25
100
AcDbLine
 10
143.6778712406
 20
44.7269397083
 30
0.0
 11
143.6779042753
 21
46.6467205904
 31
0.0
  0
LINE
  5
355
330
1F
100
AcDbEntity
  8
0
  6
Continuous
 62
     7
370
    25
100
AcDbLine
 10
143.6778712162
 20
44.7270232549
 30
0.0
 11
155.5688726227
 21
44.7266546389
 31
0.0
  0
LINE
  5
356
330
1F
100
AcDbEntity
  8
0
  6
Continuous
 62
     7
370
    25
100
AcDbLine
 10
155.5689056903
 20
46.6465851417
 30
0.0
 11
155.5688726252
 21
44.7267365534
 31
0.0
  0
LINE
  5
357
330
1F
100
AcDbEntity
  8
0
  6
Continuous
 62
     7
370
    25
100
AcDbLine
 10
134.8305893822
 20
36.018605748
 30
0.0
 11
137.7717758941
 21
31.9338393805
 31
0.0
  0
LINE
  5
358
330
1F
100
AcDbEntity
  8
0
  6
Continuous
 62
     7
370
    25
100
AcDbLine
 10
134.8305893822
 20
36.018605748
 30
0.0
 11
133.3077737905
 21
34.8819008725
 31
0.0
  0
LINE
  5
359
330
1F
100
AcDbEntity
  8
0
  6
Continuous
 62
     7
370
    25
100
AcDbLine
 10
133.3077737905
 20
34.8819008725
 30
0.0
 11
136.2298885181
 21
30.8236232841
 31
0.0
  0
LINE
  5
35A
330
1F
100
AcDbEntity
  8
0
  6
Continuous
 62
     7
370
    25
100
AcDbLine
 10
137.7717758663
 20
31.9338410128
 30
0.0
 11
136.2298885181
 21
30.8236232841
 31
0.0
  0
LINE
  5
35B
330
1F
100
AcDbEntity
  8
0
  6
Continuous
 62
     7
370
    25
100
AcDbLine
 10
150.9908743378
 20
10.946222998
 30
0.0
 11
150.9908743657
 21
10.9462213665
 31
0.0
  0
LINE
  5
35C
330
1F
100
AcDbEntity
  8
0
  6
Continuous
 62
     7
370
    25
100
AcDbLine
 10
140.0504218808
 20
8.2712107888
 30
0.0
 11
140.0504218555
 21
8.2712124203
 31
0.0
  0
LINE
  5
35D
330
1F
100
AcDbEntity
  8
0
  6
Continuous
 62
     7
370
    25
100
AcDbLine
 10
167.0457575972
 20
26.1762206544
 30
0.0
 11
167.0457576253
 21
26.1762190236
 31
0.0
  0
LINE
  5
35E
330
1F
100
AcDbEntity
  8
0
  6
Continuous
 62
     7
370
    25
100
AcDbLine
 10
170.8321030053
 20
36.6980733179
 30
0.0
 11
170.8321030345
 21
36.6980716892
 31
0.0
  0
LINE
  5
35F
330
1F
100
AcDbEntity
  8
0
  6
Continuous
 62
     7
370
    25
100
AcDbLine
 10
140.0504218808
 20
8.2712107888
 30
0.0
 11
28.123635285
 21
8.2712108065
 31
0.0
  0
LINE
  5
360
330
1F
100
AcDbEntity
  8
0
  6
Continuous
 62
     7
370
    25
100
AcDbLine
 10
28.1236352593
 20
8.2712124389
 30
0.0
 11
28.123635285
 21
8.2712108065
 31
0.0
  0
LINE
  5
361
330
1F
100
AcDbEntity
  8
0
  6
Continuous
 62
     7
370
    25
100
AcDbLine
 10
1.1798806809
 20
26.190414495
 30
0.0
 11
1.1798807089
 21
26.190412862
 31
0.0
  0
LINE
  5
362
330
1F
100
AcDbEntity
  8
0
  6
Continuous
 62
     7
370
    25
100
AcDbLine
 10
-3.2393091902
 20
42.3280532363
 30
0.0
 11
-3.2393091623
 21
42.3280516034
 31
0.0
  0
LINE
  5
363
330
1F
100
AcDbEntity
  8
0
  6
Continuous
 62
     7
370
    25
100
AcDbLine
 10
8.0102477871
 20
17.3579110907
 30
0.0
 11
8.0102478145
 21
17.357909459
 31
0.0
  0
LINE
  5
364
330
1F
100
AcDbEntity
  8
0
  6
Continuous
 62
     7
370
    25
100
AcDbLine
 10
145.7568285333
 20
40.5241536762
 30
0.0
 11
145.7568285602
 21
40.5241520438
 31
0.0
  0
LINE
  5
365
330
1F
100
AcDbEntity
  8
0
  6
Continuous
 62
     7
370
    25
100
AcDbLine
 10
153.4025610876
 20
40.5239676991
 30
0.0
 11
145.7568285586
 21
40.5240993742
 31
0.0
  0
LINE
  5
366
330
1F
100
AcDbEntity
  8
0
  6
Continuous
 62
     7
370
    25
100
AcDbLine
 10
143.6779042764
 20
46.6467557405
 30
0.0
 11
143.6779043033
 21
46.6467541081
 31
0.0
  0
LINE
  5
367
330
1F
100
AcDbEntity
  8
0
  6
Continuous
 62
     7
370
    25
100
AcDbLine
 10
155.5689057171
 20
46.6465835094
 30
0.0
 11
150.3935740068
 21
46.6465835216
 31
0.0
  0
LINE
  5
368
330
1F
100
AcDbEntity
  8
0
  6
Continuous
 62
     7
370
    25
100
AcDbLine
 10
148.7804235469
 20
46.6465959321
 30
0.0
 11
148.78042352
 21
46.6465975646
 31
0.0
  0
LINE
  5
369
330
1F
100
AcDbEntity
  8
0
  6
Continuous
 62
     7
370
    25
100
AcDbLine
 10
148.7804235479
 20
46.6466310819
 30
0.0
 11
143.6779043022
 21
46.6467189577
 31
0.0
  0
LINE
  5
36A
330
1F
100
AcDbEntity
  8
0
  6
Continuous
 62
     7
370
    25
100
AcDbLine
 10
148.7803753869
 20
52.0809290408
 30
0.0
 11
148.7803754138
 21
52.0809274084
 31
0.0
  0
LINE
  5
36B
330
1F
100
AcDbEntity
  8
0
  6
Continuous
 62
     7
370
    25
100
AcDbLine
 10
150.3935258721
 20
52.0808867322
 30
0.0
 11
148.7803754134
 21
52.0809157868
 31
0.0
  0
LINE
  5
36C
330
1F
100
AcDbEntity
  8
0
  6
Continuous
 62
     7
370
    25
100
AcDbLine
 10
17.2000634092
 20
11.0132427847
 30
0.0
 11
17.2000634391
 21
11.0132411525
 31
0.0
  0
LINE
  5
36D
330
1F
100
AcDbEntity
  8
0
  6
Continuous
 62
     7
370
    25
100
AcDbLine
 10
143.0618837597
 20
16.6329043915
 30
0.0
 11
143.061883732
 21
16.6329060234
 31
0.0
  0
LINE
  5
36E
330
1F
100
AcDbEntity
  8
0
  6
Continuous
 62
     7
370
    25
100
AcDbLine
 10
144.3218837599
 20
17.8929043913
 30
0.0
 11
144.3218837321
 21
17.8929060237
 31
0.0
  0
LINE
  5
36F
330
1F
100
AcDbEntity
  8
0
  6
Continuous
 62
     7
370
    25
100
AcDbLine
 10
22.5921734259
 20
16.6329060439
 30
0.0
 11
22.5921734537
 21
16.6329044117
 31
0.0
  0
LINE
  5
370
330
1F
100
AcDbEntity
  8
0
  6
Continuous
 62
     7
370
    25
100
AcDbLine
 10
108.3983246188
 20
25.7631852007
 30
0.0
 11
108.398324591
 21
25.7631868331
 31
0.0
  0
LINE
  5
371
330
1F
100
AcDbEntity
  8
0
  6
Continuous
 62
     7
370
    25
100
AcDbLine
 10
106.1983246188
 20
25.7631852007
 30
0.0
 11
106.198324591
 21
25.7631868331
 31
0.0
  0
LINE
  5
372
330
1F
100
AcDbEntity
  8
0
  6
Continuous
 62
     7
370
    25
100
AcDbLine
 10
103.9983246188
 20
25.7631852007
 30
0.0
 11
103.998324591
 21
25.7631868331
 31
0.0
  0
LINE
  5
373
330
1F
100
AcDbEntity
  8
0
  6
Continuous
 62
     7
370
    25
100
AcDbLine
 10
101.7983246188
 20
25.7631852007
 30
0.0
 11
101.798324591
 21
25.7631868331
 31
0.0
  0
LINE
  5
374
330
1F
100
AcDbEntity
  8
0
  6
Continuous
 62
     7
370
    25
100
AcDbLine
 10
99.5983246188
 20
25.7631852007
 30
0.0
 11
99.598324591
 21
25.7631868331
 31
0.0
  0
LINE
  5
375
330
1F
100
AcDbEntity
  8
0
  6
Continuous
 62
     7
370
    25
100
AcDbLine
 10
97.3983246188
 20
25.7631852007
 30
0.0
 11
97.398324591
 21
25.7631868331
 31
0.0
  0
LINE
  5
376
330
1F
100
AcDbEntity
  8
0
  6
Continuous
 62
     7
370
    25
100
AcDbLine
 10
95.1983246188
 20
25.7631852007
 30
0.0
 11
95.198324591
 21
25.7631868331
 31
0.0
  0
LINE
  5
377
330
1F
100
AcDbEntity
  8
0
  6
Continuous
 62
     7
370
    25
100
AcDbLine
 10
92.9983246188
 20
25.7631852007
 30
0.0
 11
92.998324591
 21
25.7631868331
 31
0.0
  0
LINE
  5
378
330
1F
100
AcDbEntity
  8
0
  6
Continuous
 62
     7
370
    25
100
AcDbLine
 10
90.7983246188
 20
25.7631852007
 30
0.0
 11
90.798324591
 21
25.7631868331
 31
0.0
  0
LINE
  5
379
330
1F
100
AcDbEntity
  8
0
  6
Continuous
 62
     7
370
    25
100
AcDbLine
 10
88.5983246188
 20
25.7631852007
 30
0.0
 11
88.598324591
 21
25.7631868331
 31
0.0
  0
LINE
  5
37A
330
1F
100
AcDbEntity
  8
0
  6
Continuous
 62
     7
370
    25
100
AcDbLine
 10
86.3983246188
 20
25.7631852007
 30
0.0
 11
86.398324591
 21
25.7631868331
 31
0.0
  0
LINE
  5
37B
330
1F
100
AcDbEntity
  8
0
  6
Continuous
 62
     7
370
    25
100
AcDbLine
 10
84.1983246188
 20
25.7631852007
 30
0.0
 11
84.198324591
 21
25.7631868331
 31
0.0
  0
LINE
  5
37C
330
1F
100
AcDbEntity
  8
0
  6
Continuous
 62
     7
370
    25
100
AcDbLine
 10
81.9983246188
 20
25.7631852007
 30
0.0
 11
81.998324591
 21
25.7631868331
 31
0.0
  0
LINE
  5
37D
330
1F
100
AcDbEntity
  8
0
  6
Continuous
 62
     7
370
    25
100
AcDbLine
 10
79.7983246188
 20
25.7631852007
 30
0.0
 11
79.798324591
 21
25.7631868331
 31
0.0
  0
LINE
  5
37E
330
1F
100
AcDbEntity
  8
0
  6
Continuous
 62
     7
370
    25
100
AcDbLine
 10
77.5983246188
 20
25.7631852007
 30
0.0
 11
77.598324591
 21
25.7631868331
 31
0.0
  0
LINE
  5
37F
330
1F
100
AcDbEntity
  8
0
  6
Continuous
 62
     7
370
    25
100
AcDbLine
 10
75.3983246188
 20
25.7631852007
 30
0.0
 11
75.398324591
 21
25.7631868331
 31
0.0
  0
LINE
  5
380
330
1F
100
AcDbEntity
  8
0
  6
Continuous
 62
     7
370
    25
100
AcDbLine
 10
73.1983246188
 20
25.7631852007
 30
0.0
 11
73.198324591
 21
25.7631868331
 31
0.0
  0
LINE
  5
381
330
1F
100
AcDbEntity
  8
0
  6
Continuous
 62
     7
370
    25
100
AcDbLine
 10
70.9983246188
 20
25.7631852007
 30
0.0
 11
70.998324591
 21
25.7631868331
 31
0.0
  0
LINE
  5
382
330
1F
100
AcDbEntity
  8
0
  6
Continuous
 62
     7
370
    25
100
AcDbLine
 10
68.7983246188
 20
25.7631852007
 30
0.0
 11
68.798324591
 21
25.7631868331
 31
0.0
  0
LINE
  5
383
330
1F
100
AcDbEntity
  8
0
  6
Continuous
 62
     7
370
    25
100
AcDbLine
 10
66.5983246188
 20
25.7631852007
 30
0.0
 11
66.598324591
 21
25.7631868331
 31
0.0
  0
LINE
  5
384
330
1F
100
AcDbEntity
  8
0
  6
Continuous
 62
     7
370
    25
100
AcDbLine
 10
144.9175052728
 20
30.5039889928
 30
0.0
 11
144.9175053016
 21
30.5039873604
 31
0.0
  0
LINE
  5
385
330
1F
100
AcDbEntity
  8
0
  6
Continuous
 62
     7
370
    25
100
AcDbLine
 10
109.4983246188
 20
28.7631852007
 30
0.0
 11
109.498324591
 21
28.7631868331
 31
0.0
  0
LINE
  5
386
330
1F
100
AcDbEntity
  8
0
  6
Continuous
 62
     7
370
    25
100
AcDbLine
 10
107.2983246188
 20
28.7631852007
 30
0.0
 11
107.298324591
 21
28.7631868331
 31
0.0
  0
LINE
  5
387
330
1F
100
AcDbEntity
  8
0
  6
Continuous
 62
     7
370
    25
100
AcDbLine
 10
105.0983246188
 20
28.7631852007
 30
0.0
 11
105.098324591
 21
28.7631868331
 31
0.0
  0
LINE
  5
388
330
1F
100
AcDbEntity
  8
0
  6
Continuous
 62
     7
370
    25
100
AcDbLine
 10
102.8983246188
 20
28.7631852007
 30
0.0
 11
102.898324591
 21
28.7631868331
 31
0.0
  0
LINE
  5
389
330
1F
100
AcDbEntity
  8
0
  6
Continuous
 62
     7
370
    25
100
AcDbLine
 10
100.6983246188
 20
28.7631852007
 30
0.0
 11
100.698324591
 21
28.7631868331
 31
0.0
  0
LINE
  5
38A
330
1F
100
AcDbEntity
  8
0
  6
Continuous
 62
     7
370
    25
100
AcDbLine
 10
98.4983246188
 20
28.7631852007
 30
0.0
 11
98.498324591
 21
28.7631868331
 31
0.0
  0
LINE
  5
38B
330
1F
100
AcDbEntity
  8
0
  6
Continuous
 62
     7
370
    25
100
AcDbLine
 10
96.2983246188
 20
28.7631852007
 30
0.0
 11
96.298324591
 21
28.7631868331
 31
0.0
  0
LINE
  5
38C
330
1F
100
AcDbEntity
  8
0
  6
Continuous
 62
     7
370
    25
100
AcDbLine
 10
94.0983246188
 20
28.7631852007
 30
0.0
 11
94.098324591
 21
28.7631868331
 31
0.0
  0
LINE
  5
38D
330
1F
100
AcDbEntity
  8
0
  6
Continuous
 62
     7
370
    25
100
AcDbLine
 10
91.8983246188
 20
28.7631852007
 30
0.0
 11
91.898324591
 21
28.7631868331
 31
0.0
  0
LINE
  5
38E
330
1F
100
AcDbEntity
  8
0
  6
Continuous
 62
     7
370
    25
100
AcDbLine
 10
89.6983246188
 20
28.7631852007
 30
0.0
 11
89.698324591
 21
28.7631868331
 31
0.0
  0
LINE
  5
38F
330
1F
100
AcDbEntity
  8
0
  6
Continuous
 62
     7
370
    25
100
AcDbLine
 10
87.4983246188
 20
28.7631852007
 30
0.0
 11
87.498324591
 21
28.7631868331
 31
0.0
  0
LINE
  5
390
330
1F
100
AcDbEntity
  8
0
  6
Continuous
 62
     7
370
    25
100
AcDbLine
 10
85.2983246188
 20
28.7631852007
 30
0.0
 11
85.298324591
 21
28.7631868331
 31
0.0
  0
LINE
  5
391
330
1F
100
AcDbEntity
  8
0
  6
Continuous
 62
     7
370
    25
100
AcDbLine
 10
83.0983246188
 20
28.7631852007
 30
0.0
 11
83.098324591
 21
28.7631868331
 31
0.0
  0
LINE
  5
392
330
1F
100
AcDbEntity
  8
0
  6
Continuous
 62
     7
370
    25
100
AcDbLine
 10
80.8983246188
 20
28.7631852007
 30
0.0
 11
80.898324591
 21
28.7631868331
 31
0.0
  0
LINE
  5
393
330
1F
100
AcDbEntity
  8
0
  6
Continuous
 62
     7
370
    25
100
AcDbLine
 10
78.6983246188
 20
28.7631852007
 30
0.0
 11
78.698324591
 21
28.7631868331
 31
0.0
  0
LINE
  5
394
330
1F
100
AcDbEntity
  8
0
  6
Continuous
 62
     7
370
    25
100
AcDbLine
 10
76.4983246188
 20
28.7631852007
 30
0.0
 11
76.498324591
 21
28.7631868331
 31
0.0
  0
LINE
  5
395
330
1F
100
AcDbEntity
  8
0
  6
Continuous
 62
     7
370
    25
100
AcDbLine
 10
74.2983246188
 20
28.7631852007
 30
0.0
 11
74.298324591
 21
28.7631868331
 31
0.0
  0
LINE
  5
396
330
1F
100
AcDbEntity
  8
0
  6
Continuous
 62
     7
370
    25
100
AcDbLine
 10
72.0983246188
 20
28.7631852007
 30
0.0
 11
72.098324591
 21
28.7631868331
 31
0.0
  0
LINE
  5
397
330
1F
100
AcDbEntity
  8
0
  6
Continuous
 62
     7
370
    25
100
AcDbLine
 10
69.8983246188
 20
28.7631852007
 30
0.0
 11
69.898324591
 21
28.7631868331
 31
0.0
  0
LINE
  5
398
330
1F
100
AcDbEntity
  8
0
  6
Continuous
 62
     7
370
    25
100
AcDbLine
 10
67.6983246188
 20
28.7631852007
 30
0.0
 11
67.698324591
 21
28.7631868331
 31
0.0
  0
LINE
  5
399
330
1F
100
AcDbEntity
  8
0
  6
Continuous
 62
     7
370
    25
100
AcDbLine
 10
13.9075052977
 20
30.5039879063
 30
0.0
 11
13.9075052732
 21
30.5039895387
 31
0.0
  0
LINE
  5
39A
330
1F
100
AcDbEntity
  8
0
  6
Continuous
 62
     7
370
    25
100
AcDbLine
 10
152.7708881914
 20
33.0096502103
 30
0.0
 11
152.7708882214
 21
33.0096485779
 31
0.0
  0
LINE
  5
39B
330
1F
100
AcDbEntity
  8
0
  6
Continuous
 62
     7
370
    25
100
AcDbLine
 10
21.7608882226
 20
33.0096491225
 30
0.0
 11
21.7608881912
 21
33.0096507549
 31
0.0
  0
LINE
  5
39C
330
1F
100
AcDbEntity
  8
0
  6
Continuous
 62
     7
370
    25
100
AcDbLine
 10
146.7655337632
 20
34.9868330542
 30
0.0
 11
146.7655337382
 21
34.9868346866
 31
0.0
  0
LINE
  5
39D
330
1F
100
AcDbEntity
  8
0
  6
Continuous
 62
     7
370
    25
100
AcDbLine
 10
137.127267458
 20
34.9916598476
 30
0.0
 11
137.1272674302
 21
34.99166148
 31
0.0
  0
LINE
  5
39E
330
1F
100
AcDbEntity
  8
0
  6
Continuous
 62
     7
370
    25
100
AcDbLine
 10
15.7555337632
 20
34.9868336002
 30
0.0
 11
15.7555337382
 21
34.9868352326
 31
0.0
  0
LINE
  5
39F
330
1F
100
AcDbEntity
  8
0
  6
Continuous
 62
     7
370
    25
100
AcDbLine
 10
133.3077738184
 20
34.88189924
 30
0.0
 11
134.8305894099
 21
36.0186041154
 31
0.0
  0
LINE
  5
3A0
330
1F
100
AcDbEntity
  8
0
  6
Continuous
 62
     7
370
    25
100
AcDbLine
 10
126.3983246188
 20
40.1431852007
 30
0.0
 11
126.398324591
 21
40.1431868331
 31
0.0
  0
LINE
  5
3A1
330
1F
100
AcDbEntity
  8
0
  6
Continuous
 62
     7
370
    25
100
AcDbLine
 10
138.7503067717
 20
36.1603100887
 30
0.0
 11
138.7503067439
 21
36.1603117211
 31
0.0
  0
LINE
  5
3A2
330
1F
100
AcDbEntity
  8
0
  6
Continuous
 62
     7
370
    25
100
AcDbLine
 10
171.434299946
 20
42.2805551731
 30
0.0
 11
171.4342999176
 21
42.2805568149
 31
0.0
  0
LINE
  5
3A3
330
1F
100
AcDbEntity
  8
0
  6
Continuous
 62
     7
370
    25
100
AcDbLine
 10
117.9083246188
 20
38.1031852007
 30
0.0
 11
117.908324591
 21
38.1031868331
 31
0.0
  0
LINE
  5
3A4
330
1F
100
AcDbEntity
  8
0
  6
Continuous
 62
     7
370
    25
100
AcDbLine
 10
5.997267458
 20
34.9916598476
 30
0.0
 11
5.9972674302
 21
34.99166148
 31
0.0
  0
LINE
  5
3A5
330
1F
100
AcDbEntity
  8
0
  6
Continuous
 62
     7
370
    25
100
AcDbLine
 10
41.7983245914
 20
40.1431868331
 30
0.0
 11
41.7983246192
 21
40.1431852007
 31
0.0
  0
LINE
  5
3A6
330
1F
100
AcDbEntity
  8
0
  6
Continuous
 62
     7
370
    25
100
AcDbLine
 10
3.70058941
 20
36.0186041156
 30
0.0
 11
2.1777738183
 21
34.8818992401
 31
0.0
  0
LINE
  5
3A7
330
1F
100
AcDbEntity
  8
0
  6
Continuous
 62
     7
370
    25
100
AcDbLine
 10
7.6203067717
 20
36.1603100887
 30
0.0
 11
7.6203067439
 21
36.1603117211
 31
0.0
  0
LINE
  5
3A8
330
1F
100
AcDbEntity
  8
0
  6
Continuous
 62
     7
370
    25
100
AcDbLine
 10
23.2983246188
 20
39.5344636568
 30
0.0
 11
23.298324591
 21
39.5344652893
 31
0.0
  0
LINE
  5
3A9
330
1F
100
AcDbEntity
  8
0
  6
Continuous
 62
     7
370
    25
100
AcDbLine
 10
20.7983246188
 20
39.5344636568
 30
0.0
 11
20.798324591
 21
39.5344652893
 31
0.0
  0
LINE
  5
3AA
330
1F
100
AcDbEntity
  8
0
  6
Continuous
 62
     7
370
    25
100
AcDbLine
 10
18.2983246188
 20
39.5344636568
 30
0.0
 11
18.298324591
 21
39.5344652893
 31
0.0
  0
LINE
  5
3AB
330
1F
100
AcDbEntity
  8
0
  6
Continuous
 62
     7
370
    25
100
AcDbLine
 10
15.7983246188
 20
39.5344636568
 30
0.0
 11
15.798324591
 21
39.5344652893
 31
0.0
  0
LINE
  5
3AC
330
1F
100
AcDbEntity
  8
0
  6
Continuous
 62
     7
370
    25
100
AcDbLine
 10
13.2983246188
 20
39.5344636568
 30
0.0
 11
13.298324591
 21
39.5344652893
 31
0.0
  0
LINE
  5
3AD
330
1F
100
AcDbEntity
  8
0
  6
Continuous
 62
     7
370
    25
100
AcDbLine
 10
10.7983246188
 20
39.5344636568
 30
0.0
 11
10.798324591
 21
39.5344652893
 31
0.0
  0
LINE
  5
3AE
330
1F
100
AcDbEntity
  8
0
  6
Continuous
 62
     7
370
    25
100
AcDbLine
 10
157.6069428827
 20
47.3389689137
 30
0.0
 11
157.6069428603
 21
47.3389705462
 31
0.0
  0
LINE
  5
3AF
330
1F
100
AcDbEntity
  8
0
  6
Continuous
 62
     7
370
    25
100
AcDbLine
 10
26.5969428851
 20
47.3389694597
 30
0.0
 11
26.5969428603
 21
47.3389710921
 31
0.0
  0
LINE
  5
3B0
330
1F
100
AcDbEntity
  8
0
  6
Continuous
 62
     7
370
    25
100
AcDbLine
 10
141.1339860128
 20
50.3998160942
 30
0.0
 11
141.1339859879
 21
50.3998177266
 31
0.0
  0
LINE
  5
3B1
330
1F
100
AcDbEntity
  8
0
  6
Continuous
 62
     7
370
    25
100
AcDbLine
 10
10.1239860104
 20
50.3998166402
 30
0.0
 11
10.1239859849
 21
50.3998182726
 31
0.0
  0
LINE
  5
3B2
330
1F
100
AcDbEntity
  8
0
  6
Continuous
 62
     7
370
    25
100
AcDbLine
 10
56.0483246188
 20
51.6831852007
 30
0.0
 11
56.048324591
 21
51.6831868331
 31
0.0
  0
LINE
  5
3B3
330
1F
100
AcDbEntity
  8
0
  6
Continuous
 62
     7
370
    25
100
AcDbLine
 10
119.0806778844
 20
53.3163565193
 30
0.0
 11
119.0806778566
 21
53.3163581518
 31
0.0
  0
LINE
  5
3B4
330
1F
100
AcDbEntity
  8
0
  6
Continuous
 62
     7
370
    25
100
AcDbLine
 10
47.9906778856
 20
53.3163565193
 30
0.0
 11
47.9906778568
 21
53.3163581518
 31
0.0
  0
LINE
  5
3B5
330
1F
100
AcDbEntity
  8
0
  6
Continuous
 62
     7
370
    25
100
AcDbLine
 10
146.387730776
 20
56.8230614743
 30
0.0
 11
146.3877308007
 21
56.8230598419
 31
0.0
  0
LINE
  5
3B6
330
1F
100
AcDbEntity
  8
0
  6
Continuous
 62
     7
370
    25
100
AcDbLine
 10
139.8391936179
 20
56.9240707724
 30
0.0
 11
139.8391936399
 21
56.92406914
 31
0.0
  0
LINE
  5
3B7
330
1F
100
AcDbEntity
  8
0
  6
Continuous
 62
     7
370
    25
100
AcDbLine
 10
157.1189173885
 20
57.9493338168
 30
0.0
 11
157.1189174152
 21
57.9493321844
 31
0.0
  0
LINE
  5
3B8
330
1F
100
AcDbEntity
  8
0
  6
Continuous
 62
     7
370
    25
100
AcDbLine
 10
15.3777307996
 20
56.8230603874
 30
0.0
 11
15.3777307749
 21
56.8230620199
 31
0.0
  0
LINE
  5
3B9
330
1F
100
AcDbEntity
  8
0
  6
Continuous
 62
     7
370
    25
100
AcDbLine
 10
8.8291936415
 20
56.9240696855
 30
0.0
 11
8.8291936178
 21
56.9240713179
 31
0.0
  0
LINE
  5
3BA
330
1F
100
AcDbEntity
  8
0
  6
Continuous
 62
     7
370
    25
100
AcDbLine
 10
112.5183246188
 20
56.5831852007
 30
0.0
 11
111.9183246188
 21
56.5831852007
 31
0.0
  0
LINE
  5
3BB
330
1F
100
AcDbEntity
  8
0
  6
Continuous
 62
     7
370
    25
100
AcDbLine
 10
109.9783246188
 20
56.5831852007
 30
0.0
 11
109.3783246188
 21
56.5831852007
 31
0.0
  0
LINE
  5
3BC
330
1F
100
AcDbEntity
  8
0
  6
Continuous
 62
     7
370
    25
100
AcDbLine
 10
107.4383246188
 20
56.5831852007
 30
0.0
 11
106.8383246188
 21
56.5831852007
 31
0.0
  0
LINE
  5
3BD
330
1F
100
AcDbEntity
  8
0
  6
Continuous
 62
     7
370
    25
100
AcDbLine
 10
26.1089174137
 20
57.94933273
 30
0.0
 11
26.1089173879
 21
57.9493343624
 31
0.0
  0
LINE
  5
3BE
330
1F
100
AcDbEntity
  8
0
  6
Continuous
 62
     7
370
    25
100
AcDbLine
 10
104.8983246188
 20
56.5831852007
 30
0.0
 11
104.2983246188
 21
56.5831852007
 31
0.0
  0
LINE
  5
3BF
330
1F
100
AcDbEntity
  8
0
  6
Continuous
 62
     7
370
    25
100
AcDbLine
 10
102.3583246188
 20
56.5831852007
 30
0.0
 11
101.7583246188
 21
56.5831852007
 31
0.0
  0
LINE
  5
3C0
330
1F
100
AcDbEntity
  8
0
  6
Continuous
 62
     7
370
    25
100
AcDbLine
 10
99.8183246188
 20
56.5831852007
 30
0.0
 11
99.2183246188
 21
56.5831852007
 31
0.0
  0
LINE
  5
3C1
330
1F
100
AcDbEntity
  8
0
  6
Continuous
 62
     7
370
    25
100
AcDbLine
 10
97.2783246188
 20
56.5831852007
 30
0.0
 11
96.6783246188
 21
56.5831852007
 31
0.0
  0
LINE
  5
3C2
330
1F
100
AcDbEntity
  8
0
  6
Continuous
 62
     7
370
    25
100
AcDbLine
 10
94.7383246188
 20
56.5831852007
 30
0.0
 11
94.1383246188
 21
56.5831852007
 31
0.0
  0
LINE
  5
3C3
330
1F
100
AcDbEntity
  8
0
  6
Continuous
 62
     7
370
    25
100
AcDbLine
 10
92.1983246188
 20
56.5831852007
 30
0.0
 11
91.5983246188
 21
56.5831852007
 31
0.0
  0
LINE
  5
3C4
330
1F
100
AcDbEntity
  8
0
  6
Continuous
 62
     7
370
    25
100
AcDbLine
 10
89.6583246188
 20
56.5831852007
 30
0.0
 11
89.0583246188
 21
56.5831852007
 31
0.0
  0
LINE
  5
3C5
330
1F
100
AcDbEntity
  8
0
  6
Continuous
 62
     7
370
    25
100
AcDbLine
 10
87.1183246188
 20
56.5831852007
 30
0.0
 11
86.5183246188
 21
56.5831852007
 31
0.0
  0
LINE
  5
3C6
330
1F
100
AcDbEntity
  8
0
  6
Continuous
 62
     7
370
    25
100
AcDbLine
 10
84.5783246188
 20
56.5831852007
 30
0.0
 11
83.9783246188
 21
56.5831852007
 31
0.0
  0
LINE
  5
3C7
330
1F
100
AcDbEntity
  8
0
  6
Continuous
 62
     7
370
    25
100
AcDbLine
 10
82.0383246188
 20
56.5831852007
 30
0.0
 11
81.4383246188
 21
56.5831852007
 31
0.0
  0
LINE
  5
3C8
330
1F
100
AcDbEntity
  8
0
  6
Continuous
 62
     7
370
    25
100
AcDbLine
 10
79.4983246188
 20
56.5831852007
 30
0.0
 11
78.8983246188
 21
56.5831852007
 31
0.0
  0
LINE
  5
3C9
330
1F
100
AcDbEntity
  8
0
  6
Continuous
 62
     7
370
    25
100
AcDbLine
 10
76.9583246188
 20
56.5831852007
 30
0.0
 11
76.3583246188
 21
56.5831852007
 31
0.0
  0
LINE
  5
3CA
330
1F
100
AcDbEntity
  8
0
  6
Continuous
 62
     7
370
    25
100
AcDbLine
 10
74.4183246188
 20
56.5831852007
 30
0.0
 11
73.8183246188
 21
56.5831852007
 31
0.0
  0
LINE
  5
3CB
330
1F
100
AcDbEntity
  8
0
  6
Continuous
 62
     7
370
    25
100
AcDbLine
 10
71.8783246188
 20
56.5831852007
 30
0.0
 11
71.2783246188
 21
56.5831852007
 31
0.0
  0
LINE
  5
3CC
330
1F
100
AcDbEntity
  8
0
  6
Continuous
 62
     7
370
    25
100
AcDbLine
 10
69.3383246188
 20
56.5831852007
 30
0.0
 11
68.7383246188
 21
56.5831852007
 31
0.0
  0
LINE
  5
3CD
330
1F
100
AcDbEntity
  8
0
  6
Continuous
 62
     7
370
    25
100
AcDbLine
 10
66.7983246188
 20
56.5831852007
 30
0.0
 11
66.1983246188
 21
56.5831852007
 31
0.0
  0
LINE
  5
3CE
330
1F
100
AcDbEntity
  8
0
  6
Continuous
 62
     7
370
    25
100
AcDbLine
 10
64.2583246188
 20
56.5831852007
 30
0.0
 11
63.6583246188
 21
56.5831852007
 31
0.0
  0
LINE
  5
3CF
330
1F
100
AcDbEntity
  8
0
  6
Continuous
 62
     7
370
    25
100
AcDbLine
 10
61.7183246188
 20
56.5831852007
 30
0.0
 11
61.1183246188
 21
56.5831852007
 31
0.0
  0
LINE
  5
3D0
330
1F
100
AcDbEntity
  8
0
  6
Continuous
 62
     7
370
    25
100
AcDbLine
 10
59.1783246188
 20
56.5831852007
 30
0.0
 11
58.5783246188
 21
56.5831852007
 31
0.0
  0
LINE
  5
3D1
330
1F
100
AcDbEntity
  8
0
  6
Continuous
 62
     7
370
    25
100
AcDbLine
 10
56.6383246188
 20
56.5831852007
 30
0.0
 11
56.0383246188
 21
56.5831852007
 31
0.0
  0
LINE
  5
3D2
330
1F
100
AcDbEntity
  8
0
  6
Continuous
 62
     7
370
    25
100
AcDbLine
 10
128.4892904388
 20
59.565806386
 30
0.0
 11
128.489290411
 21
59.565808019
 31
0.0
  0
LINE
  5
3D3
330
1F
100
AcDbEntity
  8
0
  6
Continuous
 62
     7
370
    25
100
AcDbLine
 10
129.649290439
 20
60.725806385
 30
0.0
 11
129.6492904112
 21
60.7258080174
 31
0.0
  0
LINE
  5
3D4
330
1F
100
AcDbEntity
  8
0
  6
Continuous
 62
     7
370
    25
100
AcDbLine
 10
37.3347667899
 20
59.5658064005
 30
0.0
 11
37.3347667621
 21
59.5658080327
 31
0.0
  0
LINE
  5
3D5
330
1F
100
AcDbEntity
  8
0
  6
Continuous
 62
     7
370
    25
100
AcDbLine
 10
38.52476679
 20
60.7558064008
 30
0.0
 11
38.5247667622
 21
60.7558080332
 31
0.0
  0
ARC
  5
3D6
330
1F
100
AcDbEntity
  8
0
  6
Continuous
 62
     7
370
    25
100
AcDbCircle
 10
135.8564599985
 20
43.2947082746
 30
0.0
 40
35.59229125096918
100
AcDbArc
 50
349.3191102456
 51
358.3672176786
  0
ARC
  5
3D7
330
1F
100
AcDbEntity
  8
0
  6
Continuous
 62
     7
370
    25
100
AcDbCircle
 10
5.9972674302
 20
34.59166148
 30
0.0
 40
0.3999999999997925
100
AcDbArc
 50
90.0
 51
270.0
  0
ARC
  5
3D8
330
1F
100
AcDbEntity
  8
0
  6
Continuous
 62
     7
370
    25
100
AcDbCircle
 10
5.9972674302
 20
34.59166148
 30
0.0
 40
0.3999999999997925
100
AcDbArc
 50
270.0
 51
90.0
  0
ARC
  5
3D9
330
1F
100
AcDbEntity
  8
0
  6
Continuous
 62
     7
370
    25
100
AcDbCircle
 10
7.6203067439
 20
35.7603117211
 30
0.0
 40
0.3999999999997854
100
AcDbArc
 50
90.0
 51
270.0
  0
ARC
  5
3DA
330
1F
100
AcDbEntity
  8
0
  6
Continuous
 62
     7
370
    25
100
AcDbCircle
 10
7.6203067439
 20
35.7603117211
 30
0.0
 40
0.3999999999997854
100
AcDbArc
 50
270.0
 51
90.0
  0
ARC
  5
3DB
330
1F
100
AcDbEntity
  8
0
  6
Continuous
 62
     7
370
    25
100
AcDbCircle
 10
138.7503067439
 20
35.7603117211
 30
0.0
 40
0.3999999999997996
100
AcDbArc
 50
90.0
 51
270.0
  0
ARC
  5
3DC
330
1F
100
AcDbEntity
  8
0
  6
Continuous
 62
     7
370
    25
100
AcDbCircle
 10
138.7503067439
 20
35.7603117211
 30
0.0
 40
0.3999999999998067
100
AcDbArc
 50
270.0
 51
90.0
  0
ARC
  5
3DD
330
1F
100
AcDbEntity
  8
0
  6
Continuous
 62
     7
370
    25
100
AcDbCircle
 10
137.1272674302
 20
34.59166148
 30
0.0
 40
0.3999999999997925
100
AcDbArc
 50
90.0
 51
270.0
  0
ARC
  5
3DE
330
1F
100
AcDbEntity
  8
0
  6
Continuous
 62
     7
370
    25
100
AcDbCircle
 10
137.1272674302
 20
34.59166148
 30
0.0
 40
0.3999999999997925
100
AcDbArc
 50
270.0
 51
90.0
  0
ARC
  5
3DF
330
1F
100
AcDbEntity
  8
0
  6
Continuous
 62
     7
370
    25
100
AcDbCircle
 10
23.298324591
 20
38.8531868331
 30
0.0
 40
0.6812784561173686
100
AcDbArc
 50
90.0
 51
270.0
  0
ARC
  5
3E0
330
1F
100
AcDbEntity
  8
0
  6
Continuous
 62
     7
370
    25
100
AcDbCircle
 10
23.298324591
 20
38.8531868331
 30
0.0
 40
0.6812784561173686
100
AcDbArc
 50
270.0
 51
90.0
  0
ARC
  5
3E1
330
1F
100
AcDbEntity
  8
0
  6
Continuous
 62
     7
370
    25
100
AcDbCircle
 10
20.798324591
 20
38.8531868331
 30
0.0
 40
0.6812784561173686
100
AcDbArc
 50
90.0
 51
270.0
  0
ARC
  5
3E2
330
1F
100
AcDbEntity
  8
0
  6
Continuous
 62
     7
370
    25
100
AcDbCircle
 10
20.798324591
 20
38.8531868331
 30
0.0
 40
0.6812784561173686
100
AcDbArc
 50
270.0
 51
90.0
  0
ARC
  5
3E3
330
1F
100
AcDbEntity
  8
0
  6
Continuous
 62
     7
370
    25
100
AcDbCircle
 10
18.298324591
 20
38.8531868331
 30
0.0
 40
0.6812784561173686
100
AcDbArc
 50
90.0
 51
270.0
  0
ARC
  5
3E4
330
1F
100
AcDbEntity
  8
0
  6
Continuous
 62
     7
370
    25
100
AcDbCircle
 10
18.298324591
 20
38.8531868331
 30
0.0
 40
0.6812784561173686
100
AcDbArc
 50
270.0
 51
90.0
  0
ARC
  5
3E5
330
1F
100
AcDbEntity
  8
0
  6
Continuous
 62
     7
370
    25
100
AcDbCircle
 10
15.798324591
 20
38.8531868331
 30
0.0
 40
0.6812784561173686
100
AcDbArc
 50
90.0
 51
270.0
  0
ARC
  5
3E6
330
1F
100
AcDbEntity
  8
0
  6
Continuous
 62
     7
370
    25
100
AcDbCircle
 10
15.798324591
 20
38.8531868331
 30
0.0
 40
0.6812784561173686
100
AcDbArc
 50
270.0
 51
90.0
  0
ARC
  5
3E7
330
1F
100
AcDbEntity
  8
0
  6
Continuous
 62
     7
370
    25
100
AcDbCircle
 10
13.298324591
 20
38.8531868331
 30
0.0
 40
0.6812784561173615
100
AcDbArc
 50
90.0
 51
270.0
  0
ARC
  5
3E8
330
1F
100
AcDbEntity
  8
0
  6
Continuous
 62
     7
370
    25
100
AcDbCircle
 10
13.298324591
 20
38.8531868331
 30
0.0
 40
0.6812784561173615
100
AcDbArc
 50
270.0
 51
90.0
  0
ARC
  5
3E9
330
1F
100
AcDbEntity
  8
0
  6
Continuous
 62
     7
370
    25
100
AcDbCircle
 10
10.798324591
 20
38.8531868331
 30
0.0
 40
0.6812784561173757
100
AcDbArc
 50
90.0
 51
270.0
  0
ARC
  5
3EA
330
1F
100
AcDbEntity
  8
0
  6
Continuous
 62
     7
370
    25
100
AcDbCircle
 10
10.798324591
 20
38.8531868331
 30
0.0
 40
0.6812784561173757
100
AcDbArc
 50
270.0
 51
90.0
  0
ARC
  5
3EB
330
1F
100
AcDbEntity
  8
0
  6
Continuous
 62
     7
370
    25
100
AcDbCircle
 10
56.048324591
 20
50.5831868331
 30
0.0
 40
1.099999999999433
100
AcDbArc
 50
90.0
 51
270.0
  0
ARC
  5
3EC
330
1F
100
AcDbEntity
  8
0
  6
Continuous
 62
     7
370
    25
100
AcDbCircle
 10
56.048324591
 20
50.5831868331
 30
0.0
 40
1.099999999999426
100
AcDbArc
 50
270.0
 51
90.0
  0
ARC
  5
3ED
330
1F
100
AcDbEntity
  8
0
  6
Continuous
 62
     7
370
    25
100
AcDbCircle
 10
117.908324591
 20
37.0031868331
 30
0.0
 40
1.099999999999433
100
AcDbArc
 50
90.0
 51
270.0
  0
ARC
  5
3EE
330
1F
100
AcDbEntity
  8
0
  6
Continuous
 62
     7
370
    25
100
AcDbCircle
 10
117.908324591
 20
37.0031868331
 30
0.0
 40
1.099999999999433
100
AcDbArc
 50
270.0
 51
90.0
  0
ARC
  5
3EF
330
1F
100
AcDbEntity
  8
0
  6
Continuous
 62
     7
370
    25
100
AcDbCircle
 10
119.0806778566
 20
52.2663581518
 30
0.0
 40
1.049999999999457
100
AcDbArc
 50
90.0
 51
270.0
  0
ARC
  5
3F0
330
1F
100
AcDbEntity
  8
0
  6
Continuous
 62
     7
370
    25
100
AcDbCircle
 10
119.0806778566
 20
52.2663581518
 30
0.0
 40
1.049999999999457
100
AcDbArc
 50
270.0
 51
90.0
  0
ARC
  5
3F1
330
1F
100
AcDbEntity
  8
0
  6
Continuous
 62
     7
370
    25
100
AcDbCircle
 10
88.598324591
 20
25.2631868331
 30
0.0
 40
0.4999999999997442
100
AcDbArc
 50
90.0
 51
270.0
  0
ARC
  5
3F2
330
1F
100
AcDbEntity
  8
0
  6
Continuous
 62
     7
370
    25
100
AcDbCircle
 10
88.598324591
 20
25.2631868331
 30
0.0
 40
0.4999999999997442
100
AcDbArc
 50
270.0
 51
90.0
  0
ARC
  5
3F3
330
1F
100
AcDbEntity
  8
0
  6
Continuous
 62
     7
370
    25
100
AcDbCircle
 10
91.898324591
 20
28.2631868331
 30
0.0
 40
0.4999999999997407
100
AcDbArc
 50
90.0
 51
270.0
  0
ARC
  5
3F4
330
1F
100
AcDbEntity
  8
0
  6
Continuous
 62
     7
370
    25
100
AcDbCircle
 10
91.898324591
 20
28.2631868331
 30
0.0
 40
0.4999999999997371
100
AcDbArc
 50
270.0
 51
90.0
  0
ARC
  5
3F5
330
1F
100
AcDbEntity
  8
0
  6
Continuous
 62
     7
370
    25
100
AcDbCircle
 10
90.798324591
 20
25.2631868331
 30
0.0
 40
0.4999999999997442
100
AcDbArc
 50
90.0
 51
270.0
  0
ARC
  5
3F6
330
1F
100
AcDbEntity
  8
0
  6
Continuous
 62
     7
370
    25
100
AcDbCircle
 10
90.798324591
 20
25.2631868331
 30
0.0
 40
0.4999999999997442
100
AcDbArc
 50
270.0
 51
90.0
  0
ARC
  5
3F7
330
1F
100
AcDbEntity
  8
0
  6
Continuous
 62
     7
370
    25
100
AcDbCircle
 10
94.098324591
 20
28.2631868331
 30
0.0
 40
0.4999999999997371
100
AcDbArc
 50
90.0
 51
270.0
  0
ARC
  5
3F8
330
1F
100
AcDbEntity
  8
0
  6
Continuous
 62
     7
370
    25
100
AcDbCircle
 10
94.098324591
 20
28.2631868331
 30
0.0
 40
0.4999999999997335
100
AcDbArc
 50
270.0
 51
90.0
  0
ARC
  5
3F9
330
1F
100
AcDbEntity
  8
0
  6
Continuous
 62
     7
370
    25
100
AcDbCircle
 10
84.198324591
 20
25.2631868331
 30
0.0
 40
0.4999999999997407
100
AcDbArc
 50
90.0
 51
270.0
  0
ARC
  5
3FA
330
1F
100
AcDbEntity
  8
0
  6
Continuous
 62
     7
370
    25
100
AcDbCircle
 10
84.198324591
 20
25.2631868331
 30
0.0
 40
0.4999999999997407
100
AcDbArc
 50
270.0
 51
90.0
  0
ARC
  5
3FB
330
1F
100
AcDbEntity
  8
0
  6
Continuous
 62
     7
370
    25
100
AcDbCircle
 10
87.498324591
 20
28.2631868331
 30
0.0
 40
0.4999999999997442
100
AcDbArc
 50
90.0
 51
270.0
  0
ARC
  5
3FC
330
1F
100
AcDbEntity
  8
0
  6
Continuous
 62
     7
370
    25
100
AcDbCircle
 10
87.498324591
 20
28.2631868331
 30
0.0
 40
0.4999999999997442
100
AcDbArc
 50
270.0
 51
90.0
  0
ARC
  5
3FD
330
1F
100
AcDbEntity
  8
0
  6
Continuous
 62
     7
370
    25
100
AcDbCircle
 10
86.398324591
 20
25.2631868331
 30
0.0
 40
0.49999999999973
100
AcDbArc
 50
90.0
 51
270.0
  0
ARC
  5
3FE
330
1F
100
AcDbEntity
  8
0
  6
Continuous
 62
     7
370
    25
100
AcDbCircle
 10
86.398324591
 20
25.2631868331
 30
0.0
 40
0.49999999999973
100
AcDbArc
 50
270.0
 51
90.0
  0
ARC
  5
3FF
330
1F
100
AcDbEntity
  8
0
  6
Continuous
 62
     7
370
    25
100
AcDbCircle
 10
89.698324591
 20
28.2631868331
 30
0.0
 40
0.4999999999997371
100
AcDbArc
 50
90.0
 51
270.0
  0
ARC
  5
400
330
1F
100
AcDbEntity
  8
0
  6
Continuous
 62
     7
370
    25
100
AcDbCircle
 10
89.698324591
 20
28.2631868331
 30
0.0
 40
0.4999999999997371
100
AcDbArc
 50
270.0
 51
90.0
  0
ARC
  5
401
330
1F
100
AcDbEntity
  8
0
  6
Continuous
 62
     7
370
    25
100
AcDbCircle
 10
97.398324591
 20
25.2631868331
 30
0.0
 40
0.49999999999973
100
AcDbArc
 50
90.0
 51
270.0
  0
ARC
  5
402
330
1F
100
AcDbEntity
  8
0
  6
Continuous
 62
     7
370
    25
100
AcDbCircle
 10
97.398324591
 20
25.2631868331
 30
0.0
 40
0.4999999999997335
100
AcDbArc
 50
270.0
 51
90.0
  0
ARC
  5
403
330
1F
100
AcDbEntity
  8
0
  6
Continuous
 62
     7
370
    25
100
AcDbCircle
 10
100.698324591
 20
28.2631868331
 30
0.0
 40
0.4999999999997371
100
AcDbArc
 50
90.0
 51
270.0
  0
ARC
  5
404
330
1F
100
AcDbEntity
  8
0
  6
Continuous
 62
     7
370
    25
100
AcDbCircle
 10
100.698324591
 20
28.2631868331
 30
0.0
 40
0.4999999999997442
100
AcDbArc
 50
270.0
 51
90.0
  0
ARC
  5
405
330
1F
100
AcDbEntity
  8
0
  6
Continuous
 62
     7
370
    25
100
AcDbCircle
 10
99.598324591
 20
25.2631868331
 30
0.0
 40
0.4999999999997407
100
AcDbArc
 50
90.0
 51
270.0
  0
ARC
  5
406
330
1F
100
AcDbEntity
  8
0
  6
Continuous
 62
     7
370
    25
100
AcDbCircle
 10
99.598324591
 20
25.2631868331
 30
0.0
 40
0.4999999999997407
100
AcDbArc
 50
270.0
 51
90.0
  0
ARC
  5
407
330
1F
100
AcDbEntity
  8
0
  6
Continuous
 62
     7
370
    25
100
AcDbCircle
 10
102.898324591
 20
28.2631868331
 30
0.0
 40
0.4999999999997335
100
AcDbArc
 50
90.0
 51
270.0
  0
ARC
  5
408
330
1F
100
AcDbEntity
  8
0
  6
Continuous
 62
     7
370
    25
100
AcDbCircle
 10
102.898324591
 20
28.2631868331
 30
0.0
 40
0.4999999999997335
100
AcDbArc
 50
270.0
 51
90.0
  0
ARC
  5
409
330
1F
100
AcDbEntity
  8
0
  6
Continuous
 62
     7
370
    25
100
AcDbCircle
 10
92.998324591
 20
25.2631868331
 30
0.0
 40
0.49999999999973
100
AcDbArc
 50
90.0
 51
270.0
  0
ARC
  5
40A
330
1F
100
AcDbEntity
  8
0
  6
Continuous
 62
     7
370
    25
100
AcDbCircle
 10
92.998324591
 20
25.2631868331
 30
0.0
 40
0.49999999999973
100
AcDbArc
 50
270.0
 51
90.0
  0
ARC
  5
40B
330
1F
100
AcDbEntity
  8
0
  6
Continuous
 62
     7
370
    25
100
AcDbCircle
 10
96.298324591
 20
28.2631868331
 30
0.0
 40
0.4999999999997407
100
AcDbArc
 50
90.0
 51
270.0
  0
ARC
  5
40C
330
1F
100
AcDbEntity
  8
0
  6
Continuous
 62
     7
370
    25
100
AcDbCircle
 10
96.298324591
 20
28.2631868331
 30
0.0
 40
0.4999999999997407
100
AcDbArc
 50
270.0
 51
90.0
  0
ARC
  5
40D
330
1F
100
AcDbEntity
  8
0
  6
Continuous
 62
     7
370
    25
100
AcDbCircle
 10
95.198324591
 20
25.2631868331
 30
0.0
 40
0.4999999999997407
100
AcDbArc
 50
90.0
 51
270.0
  0
ARC
  5
40E
330
1F
100
AcDbEntity
  8
0
  6
Continuous
 62
     7
370
    25
100
AcDbCircle
 10
95.198324591
 20
25.2631868331
 30
0.0
 40
0.4999999999997407
100
AcDbArc
 50
270.0
 51
90.0
  0
ARC
  5
40F
330
1F
100
AcDbEntity
  8
0
  6
Continuous
 62
     7
370
    25
100
AcDbCircle
 10
98.498324591
 20
28.2631868331
 30
0.0
 40
0.4999999999997442
100
AcDbArc
 50
90.0
 51
270.0
  0
ARC
  5
410
330
1F
100
AcDbEntity
  8
0
  6
Continuous
 62
     7
370
    25
100
AcDbCircle
 10
98.498324591
 20
28.2631868331
 30
0.0
 40
0.4999999999997478
100
AcDbArc
 50
270.0
 51
90.0
  0
ARC
  5
411
330
1F
100
AcDbEntity
  8
0
  6
Continuous
 62
     7
370
    25
100
AcDbCircle
 10
70.998324591
 20
25.2631868331
 30
0.0
 40
0.4999999999997371
100
AcDbArc
 50
90.0
 51
270.0
  0
ARC
  5
412
330
1F
100
AcDbEntity
  8
0
  6
Continuous
 62
     7
370
    25
100
AcDbCircle
 10
70.998324591
 20
25.2631868331
 30
0.0
 40
0.4999999999997407
100
AcDbArc
 50
270.0
 51
90.0
  0
ARC
  5
413
330
1F
100
AcDbEntity
  8
0
  6
Continuous
 62
     7
370
    25
100
AcDbCircle
 10
74.298324591
 20
28.2631868331
 30
0.0
 40
0.4999999999997407
100
AcDbArc
 50
90.0
 51
270.0
  0
ARC
  5
414
330
1F
100
AcDbEntity
  8
0
  6
Continuous
 62
     7
370
    25
100
AcDbCircle
 10
74.298324591
 20
28.2631868331
 30
0.0
 40
0.4999999999997407
100
AcDbArc
 50
270.0
 51
90.0
  0
ARC
  5
415
330
1F
100
AcDbEntity
  8
0
  6
Continuous
 62
     7
370
    25
100
AcDbCircle
 10
73.198324591
 20
25.2631868331
 30
0.0
 40
0.4999999999997371
100
AcDbArc
 50
90.0
 51
270.0
  0
ARC
  5
416
330
1F
100
AcDbEntity
  8
0
  6
Continuous
 62
     7
370
    25
100
AcDbCircle
 10
73.198324591
 20
25.2631868331
 30
0.0
 40
0.4999999999997407
100
AcDbArc
 50
270.0
 51
90.0
  0
ARC
  5
417
330
1F
100
AcDbEntity
  8
0
  6
Continuous
 62
     7
370
    25
100
AcDbCircle
 10
76.498324591
 20
28.2631868331
 30
0.0
 40
0.4999999999997335
100
AcDbArc
 50
90.0
 51
270.0
  0
ARC
  5
418
330
1F
100
AcDbEntity
  8
0
  6
Continuous
 62
     7
370
    25
100
AcDbCircle
 10
76.498324591
 20
28.2631868331
 30
0.0
 40
0.4999999999997335
100
AcDbArc
 50
270.0
 51
90.0
  0
ARC
  5
419
330
1F
100
AcDbEntity
  8
0
  6
Continuous
 62
     7
370
    25
100
AcDbCircle
 10
66.598324591
 20
25.2631868331
 30
0.0
 40
0.4999999999997904
100
AcDbArc
 50
90.0
 51
270.0
  0
ARC
  5
41A
330
1F
100
AcDbEntity
  8
0
  6
Continuous
 62
     7
370
    25
100
AcDbCircle
 10
66.598324591
 20
25.2631868331
 30
0.0
 40
0.4999999999997904
100
AcDbArc
 50
270.0
 51
90.0
  0
ARC
  5
41B
330
1F
100
AcDbEntity
  8
0
  6
Continuous
 62
     7
370
    25
100
AcDbCircle
 10
69.898324591
 20
28.2631868331
 30
0.0
 40
0.4999999999997371
100
AcDbArc
 50
90.0
 51
270.0
  0
ARC
  5
41C
330
1F
100
AcDbEntity
  8
0
  6
Continuous
 62
     7
370
    25
100
AcDbCircle
 10
69.898324591
 20
28.2631868331
 30
0.0
 40
0.4999999999997335
100
AcDbArc
 50
270.0
 51
90.0
  0
ARC
  5
41D
330
1F
100
AcDbEntity
  8
0
  6
Continuous
 62
     7
370
    25
100
AcDbCircle
 10
68.798324591
 20
25.2631868331
 30
0.0
 40
0.4999999999997442
100
AcDbArc
 50
90.0
 51
270.0
  0
ARC
  5
41E
330
1F
100
AcDbEntity
  8
0
  6
Continuous
 62
     7
370
    25
100
AcDbCircle
 10
68.798324591
 20
25.2631868331
 30
0.0
 40
0.4999999999997407
100
AcDbArc
 50
270.0
 51
90.0
  0
ARC
  5
41F
330
1F
100
AcDbEntity
  8
0
  6
Continuous
 62
     7
370
    25
100
AcDbCircle
 10
72.098324591
 20
28.2631868331
 30
0.0
 40
0.4999999999997442
100
AcDbArc
 50
90.0
 51
270.0
  0
ARC
  5
420
330
1F
100
AcDbEntity
  8
0
  6
Continuous
 62
     7
370
    25
100
AcDbCircle
 10
72.098324591
 20
28.2631868331
 30
0.0
 40
0.4999999999997407
100
AcDbArc
 50
270.0
 51
90.0
  0
ARC
  5
421
330
1F
100
AcDbEntity
  8
0
  6
Continuous
 62
     7
370
    25
100
AcDbCircle
 10
79.798324591
 20
25.2631868331
 30
0.0
 40
0.4999999999997407
100
AcDbArc
 50
90.0
 51
270.0
  0
ARC
  5
422
330
1F
100
AcDbEntity
  8
0
  6
Continuous
 62
     7
370
    25
100
AcDbCircle
 10
79.798324591
 20
25.2631868331
 30
0.0
 40
0.4999999999997478
100
AcDbArc
 50
270.0
 51
90.0
  0
ARC
  5
423
330
1F
100
AcDbEntity
  8
0
  6
Continuous
 62
     7
370
    25
100
AcDbCircle
 10
83.098324591
 20
28.2631868331
 30
0.0
 40
0.4999999999997335
100
AcDbArc
 50
90.0
 51
270.0
  0
ARC
  5
424
330
1F
100
AcDbEntity
  8
0
  6
Continuous
 62
     7
370
    25
100
AcDbCircle
 10
83.098324591
 20
28.2631868331
 30
0.0
 40
0.4999999999997335
100
AcDbArc
 50
270.0
 51
90.0
  0
ARC
  5
425
330
1F
100
AcDbEntity
  8
0
  6
Continuous
 62
     7
370
    25
100
AcDbCircle
 10
81.998324591
 20
25.2631868331
 30
0.0
 40
0.4999999999997442
100
AcDbArc
 50
90.0
 51
270.0
  0
ARC
  5
426
330
1F
100
AcDbEntity
  8
0
  6
Continuous
 62
     7
370
    25
100
AcDbCircle
 10
81.998324591
 20
25.2631868331
 30
0.0
 40
0.4999999999997407
100
AcDbArc
 50
270.0
 51
90.0
  0
ARC
  5
427
330
1F
100
AcDbEntity
  8
0
  6
Continuous
 62
     7
370
    25
100
AcDbCircle
 10
85.298324591
 20
28.2631868331
 30
0.0
 40
0.4999999999997335
100
AcDbArc
 50
90.0
 51
270.0
  0
ARC
  5
428
330
1F
100
AcDbEntity
  8
0
  6
Continuous
 62
     7
370
    25
100
AcDbCircle
 10
85.298324591
 20
28.2631868331
 30
0.0
 40
0.4999999999997335
100
AcDbArc
 50
270.0
 51
90.0
  0
ARC
  5
429
330
1F
100
AcDbEntity
  8
0
  6
Continuous
 62
     7
370
    25
100
AcDbCircle
 10
75.398324591
 20
25.2631868331
 30
0.0
 40
0.4999999999997442
100
AcDbArc
 50
90.0
 51
270.0
  0
ARC
  5
42A
330
1F
100
AcDbEntity
  8
0
  6
Continuous
 62
     7
370
    25
100
AcDbCircle
 10
75.398324591
 20
25.2631868331
 30
0.0
 40
0.4999999999997442
100
AcDbArc
 50
270.0
 51
90.0
  0
ARC
  5
42B
330
1F
100
AcDbEntity
  8
0
  6
Continuous
 62
     7
370
    25
100
AcDbCircle
 10
78.698324591
 20
28.2631868331
 30
0.0
 40
0.4999999999997371
100
AcDbArc
 50
90.0
 51
270.0
  0
ARC
  5
42C
330
1F
100
AcDbEntity
  8
0
  6
Continuous
 62
     7
370
    25
100
AcDbCircle
 10
78.698324591
 20
28.2631868331
 30
0.0
 40
0.4999999999997371
100
AcDbArc
 50
270.0
 51
90.0
  0
ARC
  5
42D
330
1F
100
AcDbEntity
  8
0
  6
Continuous
 62
     7
370
    25
100
AcDbCircle
 10
77.598324591
 20
25.2631868331
 30
0.0
 40
0.4999999999997442
100
AcDbArc
 50
90.0
 51
270.0
  0
ARC
  5
42E
330
1F
100
AcDbEntity
  8
0
  6
Continuous
 62
     7
370
    25
100
AcDbCircle
 10
77.598324591
 20
25.2631868331
 30
0.0
 40
0.4999999999997442
100
AcDbArc
 50
270.0
 51
90.0
  0
ARC
  5
42F
330
1F
100
AcDbEntity
  8
0
  6
Continuous
 62
     7
370
    25
100
AcDbCircle
 10
80.898324591
 20
28.2631868331
 30
0.0
 40
0.4999999999997371
100
AcDbArc
 50
90.0
 51
270.0
  0
ARC
  5
430
330
1F
100
AcDbEntity
  8
0
  6
Continuous
 62
     7
370
    25
100
AcDbCircle
 10
80.898324591
 20
28.2631868331
 30
0.0
 40
0.4999999999997371
100
AcDbArc
 50
270.0
 51
90.0
  0
ARC
  5
431
330
1F
100
AcDbEntity
  8
0
  6
Continuous
 62
     7
370
    25
100
AcDbCircle
 10
106.198324591
 20
25.2631868331
 30
0.0
 40
0.4999999999997407
100
AcDbArc
 50
90.0
 51
270.0
  0
ARC
  5
432
330
1F
100
AcDbEntity
  8
0
  6
Continuous
 62
     7
370
    25
100
AcDbCircle
 10
106.198324591
 20
25.2631868331
 30
0.0
 40
0.4999999999997442
100
AcDbArc
 50
270.0
 51
90.0
  0
ARC
  5
433
330
1F
100
AcDbEntity
  8
0
  6
Continuous
 62
     7
370
    25
100
AcDbCircle
 10
109.498324591
 20
28.2631868331
 30
0.0
 40
0.4999999999997371
100
AcDbArc
 50
90.0
 51
270.0
  0
ARC
  5
434
330
1F
100
AcDbEntity
  8
0
  6
Continuous
 62
     7
370
    25
100
AcDbCircle
 10
109.498324591
 20
28.2631868331
 30
0.0
 40
0.4999999999997371
100
AcDbArc
 50
270.0
 51
90.0
  0
ARC
  5
435
330
1F
100
AcDbEntity
  8
0
  6
Continuous
 62
     7
370
    25
100
AcDbCircle
 10
108.398324591
 20
25.2631868331
 30
0.0
 40
0.4999999999997407
100
AcDbArc
 50
90.0
 51
270.0
  0
ARC
  5
436
330
1F
100
AcDbEntity
  8
0
  6
Continuous
 62
     7
370
    25
100
AcDbCircle
 10
108.398324591
 20
25.2631868331
 30
0.0
 40
0.4999999999997407
100
AcDbArc
 50
270.0
 51
90.0
  0
ARC
  5
437
330
1F
100
AcDbEntity
  8
0
  6
Continuous
 62
     7
370
    25
100
AcDbCircle
 10
101.798324591
 20
25.2631868331
 30
0.0
 40
0.4999999999997371
100
AcDbArc
 50
90.0
 51
270.0
  0
ARC
  5
438
330
1F
100
AcDbEntity
  8
0
  6
Continuous
 62
     7
370
    25
100
AcDbCircle
 10
101.798324591
 20
25.2631868331
 30
0.0
 40
0.4999999999997371
100
AcDbArc
 50
270.0
 51
90.0
  0
ARC
  5
439
330
1F
100
AcDbEntity
  8
0
  6
Continuous
 62
     7
370
    25
100
AcDbCircle
 10
105.098324591
 20
28.2631868331
 30
0.0
 40
0.4999999999997371
100
AcDbArc
 50
90.0
 51
270.0
  0
ARC
  5
43A
330
1F
100
AcDbEntity
  8
0
  6
Continuous
 62
     7
370
    25
100
AcDbCircle
 10
105.098324591
 20
28.2631868331
 30
0.0
 40
0.4999999999997371
100
AcDbArc
 50
270.0
 51
90.0
  0
ARC
  5
43B
330
1F
100
AcDbEntity
  8
0
  6
Continuous
 62
     7
370
    25
100
AcDbCircle
 10
103.998324591
 20
25.2631868331
 30
0.0
 40
0.4999999999997442
100
AcDbArc
 50
90.0
 51
270.0
  0
ARC
  5
43C
330
1F
100
AcDbEntity
  8
0
  6
Continuous
 62
     7
370
    25
100
AcDbCircle
 10
103.998324591
 20
25.2631868331
 30
0.0
 40
0.4999999999997442
100
AcDbArc
 50
270.0
 51
90.0
  0
ARC
  5
43D
330
1F
100
AcDbEntity
  8
0
  6
Continuous
 62
     7
370
    25
100
AcDbCircle
 10
107.298324591
 20
28.2631868331
 30
0.0
 40
0.4999999999997407
100
AcDbArc
 50
90.0
 51
270.0
  0
ARC
  5
43E
330
1F
100
AcDbEntity
  8
0
  6
Continuous
 62
     7
370
    25
100
AcDbCircle
 10
107.298324591
 20
28.2631868331
 30
0.0
 40
0.4999999999997407
100
AcDbArc
 50
270.0
 51
90.0
  0
ARC
  5
43F
330
1F
100
AcDbEntity
  8
0
  6
Continuous
 62
     7
370
    25
100
AcDbCircle
 10
67.698324591
 20
28.2631868331
 30
0.0
 40
0.4999999999997371
100
AcDbArc
 50
90.0
 51
270.0
  0
ARC
  5
440
330
1F
100
AcDbEntity
  8
0
  6
Continuous
 62
     7
370
    25
100
AcDbCircle
 10
67.698324591
 20
28.2631868331
 30
0.0
 40
0.4999999999997371
100
AcDbArc
 50
270.0
 51
90.0
  0
ARC
  5
441
330
1F
100
AcDbEntity
  8
0
  6
Continuous
 62
     7
370
    25
100
AcDbCircle
 10
126.398324591
 20
37.5431868331
 30
0.0
 40
2.599999999998651
100
AcDbArc
 50
90.0
 51
270.0
  0
ARC
  5
442
330
1F
100
AcDbEntity
  8
0
  6
Continuous
 62
     7
370
    25
100
AcDbCircle
 10
126.398324591
 20
37.5431868331
 30
0.0
 40
2.599999999998651
100
AcDbArc
 50
270.0
 51
90.0
  0
ARC
  5
443
330
1F
100
AcDbEntity
  8
0
  6
Continuous
 62
     7
370
    25
100
AcDbCircle
 10
23.8521734259
 20
16.6329060446
 30
0.0
 40
1.259999999999692
100
AcDbArc
 50
180.0000000305
 51
0.0000000546
  0
ARC
  5
444
330
1F
100
AcDbEntity
  8
0
  6
Continuous
 62
     7
370
    25
100
AcDbCircle
 10
23.8521734259
 20
16.6329060446
 30
0.0
 40
1.260000000000002
100
AcDbArc
 50
0.0000000546
 51
180.0000000304
  0
ARC
  5
445
330
1F
100
AcDbEntity
  8
0
  6
Continuous
 62
     7
370
    25
100
AcDbCircle
 10
47.9906778566
 20
52.2663581518
 30
0.0
 40
1.049999999999471
100
AcDbArc
 50
269.9999999915
 51
89.9999999916
  0
ARC
  5
446
330
1F
100
AcDbEntity
  8
0
  6
Continuous
 62
     7
370
    25
100
AcDbCircle
 10
47.9906778566
 20
52.2663581518
 30
0.0
 40
1.049999999999457
100
AcDbArc
 50
89.9999999915
 51
269.9999999916
  0
ARC
  5
447
330
1F
100
AcDbEntity
  8
0
  6
Continuous
 62
     7
370
    25
100
AcDbCircle
 10
41.798324591
 20
37.5431868331
 30
0.0
 40
2.599999999998651
100
AcDbArc
 50
89.9999999915
 51
269.9999999915
  0
ARC
  5
448
330
1F
100
AcDbEntity
  8
0
  6
Continuous
 62
     7
370
    25
100
AcDbCircle
 10
41.798324591
 20
37.5431868331
 30
0.0
 40
2.599999999998651
100
AcDbArc
 50
269.9999999915
 51
89.9999999916
  0
ARC
  5
449
330
1F
100
AcDbEntity
  8
0
  6
Continuous
 62
     7
370
    25
100
AcDbCircle
 10
38.5247667621
 20
59.5658080333
 30
0.0
 40
1.190000000014997
100
AcDbArc
 50
89.9999999915
 51
359.9999999528
  0
ARC
  5
44A
330
1F
100
AcDbEntity
  8
0
  6
Continuous
 62
     7
370
    25
100
AcDbCircle
 10
38.5247667621
 20
59.5658080333
 30
0.0
 40
1.189999999969984
100
AcDbArc
 50
359.9999999524
 51
89.9999999944
  0
ARC
  5
44B
330
1F
100
AcDbEntity
  8
0
  6
Continuous
 62
     7
370
    25
100
AcDbCircle
 10
144.3218837319
 20
16.6329060238
 30
0.0
 40
1.259999999999621
100
AcDbArc
 50
0.0000000314
 51
180.0000000177
  0
ARC
  5
44C
330
1F
100
AcDbEntity
  8
0
  6
Continuous
 62
     7
370
    25
100
AcDbCircle
 10
144.3218837319
 20
16.6329060238
 30
0.0
 40
1.259999999980039
100
AcDbArc
 50
180.0000000153
 51
0.0000000302
  0
ARC
  5
44D
330
1F
100
AcDbEntity
  8
0
  6
Continuous
 62
     7
370
    25
100
AcDbCircle
 10
129.649290411
 20
59.5658080174
 30
0.0
 40
1.160000000019572
100
AcDbArc
 50
89.9999999922
 51
0.0000000441
  0
ARC
  5
44E
330
1F
100
AcDbEntity
  8
0
  6
Continuous
 62
     7
370
    25
100
AcDbCircle
 10
129.649290411
 20
59.5658080174
 30
0.0
 40
1.160000000009518
100
AcDbArc
 50
0.000000044
 51
89.9999999907
  0
ARC
  5
44F
330
1F
100
AcDbEntity
  8
0
  6
Continuous
 62
     7
370
    25
100
AcDbCircle
 10
144.9175052681
 20
29.1539889928
 30
0.0
 40
1.349999999999298
100
AcDbArc
 50
89.9999998035
 51
269.9999998031
  0
ARC
  5
450
330
1F
100
AcDbEntity
  8
0
  6
Continuous
 62
     7
370
    25
100
AcDbCircle
 10
144.9175052681
 20
29.1539889928
 30
0.0
 40
1.349999999999305
100
AcDbArc
 50
269.999999803
 51
89.9999998035
  0
ARC
  5
451
330
1F
100
AcDbEntity
  8
0
  6
Continuous
 62
     7
370
    25
100
AcDbCircle
 10
139.8391936119
 20
55.5740707724
 30
0.0
 40
1.349999999999298
100
AcDbArc
 50
89.9999997466
 51
269.9999997462
  0
ARC
  5
452
330
1F
100
AcDbEntity
  8
0
  6
Continuous
 62
     7
370
    25
100
AcDbCircle
 10
139.839193612
 20
55.5740707724
 30
0.0
 40
1.349999999999298
100
AcDbArc
 50
269.9999997462
 51
89.9999997466
  0
ARC
  5
453
330
1F
100
AcDbEntity
  8
0
  6
Continuous
 62
     7
370
    25
100
AcDbCircle
 10
157.1189173818
 20
56.5993338168
 30
0.0
 40
1.349999999999305
100
AcDbArc
 50
89.9999997169
 51
269.9999997165
  0
ARC
  5
454
330
1F
100
AcDbEntity
  8
0
  6
Continuous
 62
     7
370
    25
100
AcDbCircle
 10
157.1189173818
 20
56.5993338168
 30
0.0
 40
1.349999999999305
100
AcDbArc
 50
269.9999997165
 51
89.9999997169
  0
ARC
  5
455
330
1F
100
AcDbEntity
  8
0
  6
Continuous
 62
     7
370
    25
100
AcDbCircle
 10
152.7708881906
 20
31.6096502103
 30
0.0
 40
1.399999999999277
100
AcDbArc
 50
89.9999999668
 51
269.9999996951
  0
ARC
  5
456
330
1F
100
AcDbEntity
  8
0
  6
Continuous
 62
     7
370
    25
100
AcDbCircle
 10
152.7708881906
 20
31.6096502103
 30
0.0
 40
1.399999999999277
100
AcDbArc
 50
269.9999996951
 51
89.9999999669
  0
ARC
  5
457
330
1F
100
AcDbEntity
  8
0
  6
Continuous
 62
     7
370
    25
100
AcDbCircle
 10
146.3877307699
 20
55.4230614743
 30
0.0
 40
1.399999999999274
100
AcDbArc
 50
89.9999997503
 51
269.99999975
  0
ARC
  5
458
330
1F
100
AcDbEntity
  8
0
  6
Continuous
 62
     7
370
    25
100
AcDbCircle
 10
146.3877307699
 20
55.4230614743
 30
0.0
 40
1.399999999999274
100
AcDbArc
 50
269.9999997499
 51
89.9999997504
  0
ARC
  5
459
330
1F
100
AcDbEntity
  8
0
  6
Continuous
 62
     7
370
    25
100
AcDbCircle
 10
141.1339859814
 20
49.2998177266
 30
0.0
 40
1.099999999999433
100
AcDbArc
 50
89.9999996604
 51
269.9999997833
  0
ARC
  5
45A
330
1F
100
AcDbEntity
  8
0
  6
Continuous
 62
     7
370
    25
100
AcDbCircle
 10
141.1339859814
 20
49.2998177266
 30
0.0
 40
1.099999999999433
100
AcDbArc
 50
269.9999997833
 51
89.9999996604
  0
ARC
  5
45B
330
1F
100
AcDbEntity
  8
0
  6
Continuous
 62
     7
370
    25
100
AcDbCircle
 10
157.6069428538
 20
46.2389705462
 30
0.0
 40
1.099999999999426
100
AcDbArc
 50
89.9999996604
 51
269.9999997698
  0
ARC
  5
45C
330
1F
100
AcDbEntity
  8
0
  6
Continuous
 62
     7
370
    25
100
AcDbCircle
 10
157.6069428538
 20
46.2389705462
 30
0.0
 40
1.099999999999426
100
AcDbArc
 50
269.9999997698
 51
89.9999996604
  0
ARC
  5
45D
330
1F
100
AcDbEntity
  8
0
  6
Continuous
 62
     7
370
    25
100
AcDbCircle
 10
146.7655337343
 20
33.8868346866
 30
0.0
 40
1.099999999999426
100
AcDbArc
 50
89.9999997968
 51
269.9999996698
  0
ARC
  5
45E
330
1F
100
AcDbEntity
  8
0
  6
Continuous
 62
     7
370
    25
100
AcDbCircle
 10
146.7655337343
 20
33.8868346866
 30
0.0
 40
1.099999999999426
100
AcDbArc
 50
269.9999996697
 51
89.9999997969
  0
ARC
  5
45F
330
1F
100
AcDbEntity
  8
0
  6
Continuous
 62
     7
370
    25
100
AcDbCircle
 10
10.1239859814
 20
49.2998182726
 30
0.0
 40
1.099999999999426
100
AcDbArc
 50
89.9999998192
 51
269.9999998198
  0
ARC
  5
460
330
1F
100
AcDbEntity
  8
0
  6
Continuous
 62
     7
370
    25
100
AcDbCircle
 10
10.1239859814
 20
49.2998182726
 30
0.0
 40
1.099999999999426
100
AcDbArc
 50
269.9999998198
 51
89.9999998193
  0
ARC
  5
461
330
1F
100
AcDbEntity
  8
0
  6
Continuous
 62
     7
370
    25
100
AcDbCircle
 10
15.7555337343
 20
33.8868352326
 30
0.0
 40
1.099999999999433
100
AcDbArc
 50
89.9999997968
 51
269.9999996734
  0
ARC
  5
462
330
1F
100
AcDbEntity
  8
0
  6
Continuous
 62
     7
370
    25
100
AcDbCircle
 10
15.7555337343
 20
33.8868352326
 30
0.0
 40
1.099999999999433
100
AcDbArc
 50
269.9999996734
 51
89.9999997969
  0
ARC
  5
463
330
1F
100
AcDbEntity
  8
0
  6
Continuous
 62
     7
370
    25
100
AcDbCircle
 10
26.5969428538
 20
46.2389710921
 30
0.0
 40
1.099999999999433
100
AcDbArc
 50
89.9999996604
 51
269.9999997729
  0
ARC
  5
464
330
1F
100
AcDbEntity
  8
0
  6
Continuous
 62
     7
370
    25
100
AcDbCircle
 10
26.5969428538
 20
46.2389710921
 30
0.0
 40
1.099999999999426
100
AcDbArc
 50
269.9999997729
 51
89.9999996604
  0
ARC
  5
465
330
1F
100
AcDbEntity
  8
0
  6
Continuous
 62
     7
370
    25
100
AcDbCircle
 10
8.829193612
 20
55.574071318
 30
0.0
 40
1.349999999999291
100
AcDbArc
 50
269.9999997517
 51
89.9999997513
  0
ARC
  5
466
330
1F
100
AcDbEntity
  8
0
  6
Continuous
 62
     7
370
    25
100
AcDbCircle
 10
8.829193612
 20
55.574071318
 30
0.0
 40
1.349999999999291
100
AcDbArc
 50
89.9999997513
 51
269.9999997517
  0
ARC
  5
467
330
1F
100
AcDbEntity
  8
0
  6
Continuous
 62
     7
370
    25
100
AcDbCircle
 10
26.1089173818
 20
56.5993343624
 30
0.0
 40
1.349999999999312
100
AcDbArc
 50
269.9999997402
 51
89.9999997399
  0
ARC
  5
468
330
1F
100
AcDbEntity
  8
0
  6
Continuous
 62
     7
370
    25
100
AcDbCircle
 10
26.1089173818
 20
56.5993343624
 30
0.0
 40
1.349999999999312
100
AcDbArc
 50
89.9999997398
 51
269.9999997403
  0
ARC
  5
469
330
1F
100
AcDbEntity
  8
0
  6
Continuous
 62
     7
370
    25
100
AcDbCircle
 10
13.9075052682
 20
29.1539895387
 30
0.0
 40
1.349999999999298
100
AcDbArc
 50
269.9999997878
 51
89.9999997874
  0
ARC
  5
46A
330
1F
100
AcDbEntity
  8
0
  6
Continuous
 62
     7
370
    25
100
AcDbCircle
 10
13.9075052682
 20
29.1539895387
 30
0.0
 40
1.349999999999298
100
AcDbArc
 50
89.9999997873
 51
269.9999997878
  0
ARC
  5
46B
330
1F
100
AcDbEntity
  8
0
  6
Continuous
 62
     7
370
    25
100
AcDbCircle
 10
21.7608881906
 20
31.6096507549
 30
0.0
 40
1.39999999999927
100
AcDbArc
 50
269.9999999783
 51
89.9999999779
  0
ARC
  5
46C
330
1F
100
AcDbEntity
  8
0
  6
Continuous
 62
     7
370
    25
100
AcDbCircle
 10
21.7608881906
 20
31.6096507549
 30
0.0
 40
1.39999999999927
100
AcDbArc
 50
89.9999999779
 51
269.9999999783
  0
ARC
  5
46D
330
1F
100
AcDbEntity
  8
0
  6
Continuous
 62
     7
370
    25
100
AcDbCircle
 10
15.3777307699
 20
55.4230620199
 30
0.0
 40
1.399999999999274
100
AcDbArc
 50
270.0000000086
 51
89.9999997966
  0
ARC
  5
46E
330
1F
100
AcDbEntity
  8
0
  6
Continuous
 62
     7
370
    25
100
AcDbCircle
 10
15.3777307699
 20
55.4230620199
 30
0.0
 40
1.399999999999274
100
AcDbArc
 50
89.9999997966
 51
270.0000000086
  0
ARC
  5
46F
330
1F
100
AcDbEntity
  8
0
  6
Continuous
 62
     7
370
    25
100
AcDbCircle
 10
115.7490386762
 20
25.1845669033
 30
0.0
 40
1.302620663102702
100
AcDbArc
 50
269.9999979992
 51
359.9785026863
  0
ARC
  5
470
330
1F
100
AcDbEntity
  8
0
  6
Continuous
 62
     7
370
    25
100
AcDbCircle
 10
115.7490386389
 20
25.1845670046
 30
0.0
 40
1.302620700431333
100
AcDbArc
 50
359.9784982314
 51
180.0215616041
  0
ARC
  5
471
330
1F
100
AcDbEntity
  8
0
  6
Continuous
 62
     7
370
    25
100
AcDbCircle
 10
115.7490387538
 20
25.1845670556
 30
0.0
 40
1.30262081537662
100
AcDbArc
 50
180.0215638444
 51
269.9999945844
  0
ARC
  5
472
330
1F
100
AcDbEntity
  8
0
  6
Continuous
 62
     7
370
    25
100
AcDbCircle
 10
138.1124920805
 20
13.8638915571
 30
0.0
 40
1.302620754191636
100
AcDbArc
 50
359.9784990739
 51
269.9999999916
  0
ARC
  5
473
330
1F
100
AcDbEntity
  8
0
  6
Continuous
 62
     7
370
    25
100
AcDbCircle
 10
138.1124921259
 20
13.8638914658
 30
0.0
 40
1.302620662896813
100
AcDbArc
 50
269.9999979947
 51
359.9785030886
  0
ARC
  5
474
330
1F
100
AcDbEntity
  8
0
  6
Continuous
 62
     7
370
    25
100
AcDbCircle
 10
144.3218837597
 20
16.6329043913
 30
0.0
 40
1.259999999999792
100
AcDbArc
 50
0.0000000182
 51
179.9999999904
  0
ARC
  5
475
330
1F
100
AcDbEntity
  8
0
  6
Continuous
 62
     7
370
    25
100
AcDbCircle
 10
23.8521734537
 20
16.6329044121
 30
0.0
 40
1.260000000000002
100
AcDbArc
 50
0.0000000018
 51
180.00000002
  0
ARC
  5
476
330
1F
100
AcDbEntity
  8
0
  6
Continuous
 62
     7
370
    25
100
AcDbCircle
 10
108.3983246188
 20
25.2631852007
 30
0.0
 40
0.499999999999976
100
AcDbArc
 50
0.9753679245
 51
180.9753679245
  0
ARC
  5
477
330
1F
100
AcDbEntity
  8
0
  6
Continuous
 62
     7
370
    25
100
AcDbCircle
 10
106.1983246188
 20
25.2631852007
 30
0.0
 40
0.4999999999998976
100
AcDbArc
 50
0.9753679245
 51
180.9753679245
  0
ARC
  5
478
330
1F
100
AcDbEntity
  8
0
  6
Continuous
 62
     7
370
    25
100
AcDbCircle
 10
103.9983246188
 20
25.2631852007
 30
0.0
 40
0.4999999999998687
100
AcDbArc
 50
0.9753679245
 51
180.9753679245
  0
ARC
  5
479
330
1F
100
AcDbEntity
  8
0
  6
Continuous
 62
     7
370
    25
100
AcDbCircle
 10
101.7983246188
 20
25.2631852007
 30
0.0
 40
0.5000000000000041
100
AcDbArc
 50
0.9753679245
 51
180.9753679245
  0
ARC
  5
47A
330
1F
100
AcDbEntity
  8
0
  6
Continuous
 62
     7
370
    25
100
AcDbCircle
 10
99.5983246188
 20
25.2631852007
 30
0.0
 40
0.5000000000000181
100
AcDbArc
 50
0.9753679245
 51
180.9753679245
  0
ARC
  5
47B
330
1F
100
AcDbEntity
  8
0
  6
Continuous
 62
     7
370
    25
100
AcDbCircle
 10
97.3983246188
 20
25.2631852007
 30
0.0
 40
0.5000000000000183
100
AcDbArc
 50
0.9753679245
 51
180.9753679245
  0
ARC
  5
47C
330
1F
100
AcDbEntity
  8
0
  6
Continuous
 62
     7
370
    25
100
AcDbCircle
 10
95.1983246188
 20
25.2631852007
 30
0.0
 40
0.5000000000000182
100
AcDbArc
 50
0.9753679245
 51
180.9753679245
  0
ARC
  5
47D
330
1F
100
AcDbEntity
  8
0
  6
Continuous
 62
     7
370
    25
100
AcDbCircle
 10
92.9983246188
 20
25.2631852007
 30
0.0
 40
0.5000000000002972
100
AcDbArc
 50
0.9753679245
 51
180.9753679244
  0
ARC
  5
47E
330
1F
100
AcDbEntity
  8
0
  6
Continuous
 62
     7
370
    25
100
AcDbCircle
 10
90.7983246188
 20
25.2631852007
 30
0.0
 40
0.4999999999999902
100
AcDbArc
 50
0.9753679245
 51
180.9753679245
  0
ARC
  5
47F
330
1F
100
AcDbEntity
  8
0
  6
Continuous
 62
     7
370
    25
100
AcDbCircle
 10
88.5983246188
 20
25.2631852007
 30
0.0
 40
0.5000000000000043
100
AcDbArc
 50
0.9753679245
 51
180.9753679245
  0
ARC
  5
480
330
1F
100
AcDbEntity
  8
0
  6
Continuous
 62
     7
370
    25
100
AcDbCircle
 10
86.3983246188
 20
25.2631852007
 30
0.0
 40
0.4999999999999902
100
AcDbArc
 50
0.9753679245
 51
180.9753679245
  0
ARC
  5
481
330
1F
100
AcDbEntity
  8
0
  6
Continuous
 62
     7
370
    25
100
AcDbCircle
 10
84.1983246188
 20
25.2631852007
 30
0.0
 40
0.5000000000000041
100
AcDbArc
 50
0.9753679245
 51
180.9753679245
  0
ARC
  5
482
330
1F
100
AcDbEntity
  8
0
  6
Continuous
 62
     7
370
    25
100
AcDbCircle
 10
81.9983246188
 20
25.2631852007
 30
0.0
 40
0.500000000000004
100
AcDbArc
 50
0.9753679245
 51
180.9753679245
  0
ARC
  5
483
330
1F
100
AcDbEntity
  8
0
  6
Continuous
 62
     7
370
    25
100
AcDbCircle
 10
79.7983246188
 20
25.2631852007
 30
0.0
 40
0.500000000000004
100
AcDbArc
 50
0.9753679245
 51
180.9753679245
  0
ARC
  5
484
330
1F
100
AcDbEntity
  8
0
  6
Continuous
 62
     7
370
    25
100
AcDbCircle
 10
77.5983246188
 20
25.2631852007
 30
0.0
 40
0.5000000000000039
100
AcDbArc
 50
0.9753679245
 51
180.9753679245
  0
ARC
  5
485
330
1F
100
AcDbEntity
  8
0
  6
Continuous
 62
     7
370
    25
100
AcDbCircle
 10
75.3983246188
 20
25.2631852007
 30
0.0
 40
0.4999999999998834
100
AcDbArc
 50
0.9753679245
 51
180.9753679245
  0
ARC
  5
486
330
1F
100
AcDbEntity
  8
0
  6
Continuous
 62
     7
370
    25
100
AcDbCircle
 10
73.1983246188
 20
25.2631852007
 30
0.0
 40
0.4999999999999902
100
AcDbArc
 50
0.9753679245
 51
180.9753679245
  0
ARC
  5
487
330
1F
100
AcDbEntity
  8
0
  6
Continuous
 62
     7
370
    25
100
AcDbCircle
 10
70.9983246188
 20
25.2631852007
 30
0.0
 40
0.5000000000000042
100
AcDbArc
 50
0.9753679245
 51
180.9753679245
  0
ARC
  5
488
330
1F
100
AcDbEntity
  8
0
  6
Continuous
 62
     7
370
    25
100
AcDbCircle
 10
68.7983246188
 20
25.2631852007
 30
0.0
 40
0.4999999999998831
100
AcDbArc
 50
0.9753679245
 51
180.9753679245
  0
ARC
  5
489
330
1F
100
AcDbEntity
  8
0
  6
Continuous
 62
     7
370
    25
100
AcDbCircle
 10
66.5983246188
 20
25.2631852007
 30
0.0
 40
0.4999999999999687
100
AcDbArc
 50
0.9753679245
 51
180.9753679245
  0
ARC
  5
48A
330
1F
100
AcDbEntity
  8
0
  6
Continuous
 62
     7
370
    25
100
AcDbCircle
 10
144.9175052959
 20
29.1539873604
 30
0.0
 40
1.349999999999915
100
AcDbArc
 50
0.9753679245
 51
180.9753679245
  0
ARC
  5
48B
330
1F
100
AcDbEntity
  8
0
  6
Continuous
 62
     7
370
    25
100
AcDbCircle
 10
109.4983246188
 20
28.2631852007
 30
0.0
 40
0.4999999999999901
100
AcDbArc
 50
0.9753679245
 51
180.9753679245
  0
ARC
  5
48C
330
1F
100
AcDbEntity
  8
0
  6
Continuous
 62
     7
370
    25
100
AcDbCircle
 10
107.2983246188
 20
28.2631852007
 30
0.0
 40
0.5000000000002836
100
AcDbArc
 50
0.9753679245
 51
180.9753679244
  0
ARC
  5
48D
330
1F
100
AcDbEntity
  8
0
  6
Continuous
 62
     7
370
    25
100
AcDbCircle
 10
105.0983246188
 20
28.2631852007
 30
0.0
 40
0.5000000000003116
100
AcDbArc
 50
0.9753679245
 51
180.9753679244
  0
ARC
  5
48E
330
1F
100
AcDbEntity
  8
0
  6
Continuous
 62
     7
370
    25
100
AcDbCircle
 10
102.8983246188
 20
28.2631852007
 30
0.0
 40
0.499999999999912
100
AcDbArc
 50
0.9753679245
 51
180.9753679245
  0
ARC
  5
48F
330
1F
100
AcDbEntity
  8
0
  6
Continuous
 62
     7
370
    25
100
AcDbCircle
 10
100.6983246188
 20
28.2631852007
 30
0.0
 40
0.4999999999998977
100
AcDbArc
 50
0.9753679245
 51
180.9753679245
  0
ARC
  5
490
330
1F
100
AcDbEntity
  8
0
  6
Continuous
 62
     7
370
    25
100
AcDbCircle
 10
98.4983246188
 20
28.2631852007
 30
0.0
 40
0.5000000000002973
100
AcDbArc
 50
0.9753679245
 51
180.9753679244
  0
ARC
  5
491
330
1F
100
AcDbEntity
  8
0
  6
Continuous
 62
     7
370
    25
100
AcDbCircle
 10
96.2983246188
 20
28.2631852007
 30
0.0
 40
0.5000000000000043
100
AcDbArc
 50
0.9753679245
 51
180.9753679245
  0
ARC
  5
492
330
1F
100
AcDbEntity
  8
0
  6
Continuous
 62
     7
370
    25
100
AcDbCircle
 10
94.0983246188
 20
28.2631852007
 30
0.0
 40
0.4999999999999902
100
AcDbArc
 50
0.9753679245
 51
180.9753679245
  0
ARC
  5
493
330
1F
100
AcDbEntity
  8
0
  6
Continuous
 62
     7
370
    25
100
AcDbCircle
 10
91.8983246188
 20
28.2631852007
 30
0.0
 40
0.5000000000002972
100
AcDbArc
 50
0.9753679245
 51
180.9753679244
  0
ARC
  5
494
330
1F
100
AcDbEntity
  8
0
  6
Continuous
 62
     7
370
    25
100
AcDbCircle
 10
89.6983246188
 20
28.2631852007
 30
0.0
 40
0.5000000000002977
100
AcDbArc
 50
0.9753679245
 51
180.9753679244
  0
ARC
  5
495
330
1F
100
AcDbEntity
  8
0
  6
Continuous
 62
     7
370
    25
100
AcDbCircle
 10
87.4983246188
 20
28.2631852007
 30
0.0
 40
0.4999999999999901
100
AcDbArc
 50
0.9753679245
 51
180.9753679245
  0
ARC
  5
496
330
1F
100
AcDbEntity
  8
0
  6
Continuous
 62
     7
370
    25
100
AcDbCircle
 10
85.2983246188
 20
28.2631852007
 30
0.0
 40
0.5000000000002974
100
AcDbArc
 50
0.9753679245
 51
180.9753679244
  0
ARC
  5
497
330
1F
100
AcDbEntity
  8
0
  6
Continuous
 62
     7
370
    25
100
AcDbCircle
 10
83.0983246188
 20
28.2631852007
 30
0.0
 40
0.5000000000000182
100
AcDbArc
 50
0.9753679245
 51
180.9753679245
  0
ARC
  5
498
330
1F
100
AcDbEntity
  8
0
  6
Continuous
 62
     7
370
    25
100
AcDbCircle
 10
80.8983246188
 20
28.2631852007
 30
0.0
 40
0.5000000000002693
100
AcDbArc
 50
0.9753679245
 51
180.9753679244
  0
ARC
  5
499
330
1F
100
AcDbEntity
  8
0
  6
Continuous
 62
     7
370
    25
100
AcDbCircle
 10
78.6983246188
 20
28.2631852007
 30
0.0
 40
0.5000000000002974
100
AcDbArc
 50
0.9753679245
 51
180.9753679244
  0
ARC
  5
49A
330
1F
100
AcDbEntity
  8
0
  6
Continuous
 62
     7
370
    25
100
AcDbCircle
 10
76.4983246188
 20
28.2631852007
 30
0.0
 40
0.499999999999869
100
AcDbArc
 50
0.9753679245
 51
180.9753679245
  0
ARC
  5
49B
330
1F
100
AcDbEntity
  8
0
  6
Continuous
 62
     7
370
    25
100
AcDbCircle
 10
74.2983246188
 20
28.2631852007
 30
0.0
 40
0.49999999999999
100
AcDbArc
 50
0.9753679245
 51
180.9753679245
  0
ARC
  5
49C
330
1F
100
AcDbEntity
  8
0
  6
Continuous
 62
     7
370
    25
100
AcDbCircle
 10
72.0983246188
 20
28.2631852007
 30
0.0
 40
0.49999999999999
100
AcDbArc
 50
0.9753679245
 51
180.9753679245
  0
ARC
  5
49D
330
1F
100
AcDbEntity
  8
0
  6
Continuous
 62
     7
370
    25
100
AcDbCircle
 10
69.8983246188
 20
28.2631852007
 30
0.0
 40
0.49999999999999
100
AcDbArc
 50
0.9753679245
 51
180.9753679245
  0
ARC
  5
49E
330
1F
100
AcDbEntity
  8
0
  6
Continuous
 62
     7
370
    25
100
AcDbCircle
 10
67.6983246188
 20
28.2631852007
 30
0.0
 40
0.5000000000002693
100
AcDbArc
 50
0.9753679245
 51
180.9753679244
  0
ARC
  5
49F
330
1F
100
AcDbEntity
  8
0
  6
Continuous
 62
     7
370
    25
100
AcDbCircle
 10
13.907505296
 20
29.1539879063
 30
0.0
 40
1.349999999999632
100
AcDbArc
 50
0.9753679245
 51
180.9753679245
  0
ARC
  5
4A0
330
1F
100
AcDbEntity
  8
0
  6
Continuous
 62
     7
370
    25
100
AcDbCircle
 10
152.7708882184
 20
31.6096485779
 30
0.0
 40
1.399999999999667
100
AcDbArc
 50
0.9753679245
 51
180.9753679245
  0
ARC
  5
4A1
330
1F
100
AcDbEntity
  8
0
  6
Continuous
 62
     7
370
    25
100
AcDbCircle
 10
21.7608882184
 20
31.6096491225
 30
0.0
 40
1.39999999999963
100
AcDbArc
 50
0.9753679245
 51
180.9753679245
  0
ARC
  5
4A2
330
1F
100
AcDbEntity
  8
0
  6
Continuous
 62
     7
370
    25
100
AcDbCircle
 10
146.7655337621
 20
33.8868330542
 30
0.0
 40
1.099999999999766
100
AcDbArc
 50
0.9753679245
 51
180.9753679245
  0
ARC
  5
4A3
330
1F
100
AcDbEntity
  8
0
  6
Continuous
 62
     7
370
    25
100
AcDbCircle
 10
137.127267458
 20
34.5916598476
 30
0.0
 40
0.4000000000000087
100
AcDbArc
 50
0.9753679245
 51
180.9753679245
  0
ARC
  5
4A4
330
1F
100
AcDbEntity
  8
0
  6
Continuous
 62
     7
370
    25
100
AcDbCircle
 10
15.7555337621
 20
33.8868336002
 30
0.0
 40
1.099999999999709
100
AcDbArc
 50
0.9753679245
 51
180.9753679245
  0
ARC
  5
4A5
330
1F
100
AcDbEntity
  8
0
  6
Continuous
 62
     7
370
    25
100
AcDbCircle
 10
126.3983246188
 20
37.5431852007
 30
0.0
 40
2.599999999999318
100
AcDbArc
 50
0.9753679245
 51
180.9753679245
  0
ARC
  5
4A6
330
1F
100
AcDbEntity
  8
0
  6
Continuous
 62
     7
370
    25
100
AcDbCircle
 10
138.7503067717
 20
35.7603100887
 30
0.0
 40
0.3999999999999808
100
AcDbArc
 50
0.9753679245
 51
180.9753679245
  0
ARC
  5
4A7
330
1F
100
AcDbEntity
  8
0
  6
Continuous
 62
     7
370
    25
100
AcDbCircle
 10
135.8564599739
 20
43.294706649
 30
0.0
 40
35.59229130436387
100
AcDbArc
 50
349.3191102568
 51
358.3672176548
  0
ARC
  5
4A8
330
1F
100
AcDbEntity
  8
0
  6
Continuous
 62
     7
370
    25
100
AcDbCircle
 10
117.9083246188
 20
37.0031852007
 30
0.0
 40
1.099999999999763
100
AcDbArc
 50
0.9753679245
 51
180.9753679245
  0
ARC
  5
4A9
330
1F
100
AcDbEntity
  8
0
  6
Continuous
 62
     7
370
    25
100
AcDbCircle
 10
5.997267458
 20
34.5916598476
 30
0.0
 40
0.3999999999998656
100
AcDbArc
 50
0.9753679245
 51
180.9753679245
  0
ARC
  5
4AA
330
1F
100
AcDbEntity
  8
0
  6
Continuous
 62
     7
370
    25
100
AcDbCircle
 10
41.7983246188
 20
37.5431852007
 30
0.0
 40
2.599999999999295
100
AcDbArc
 50
0.9753631534
 51
180.9753631534
  0
ARC
  5
4AB
330
1F
100
AcDbEntity
  8
0
  6
Continuous
 62
     7
370
    25
100
AcDbCircle
 10
7.6203067717
 20
35.7603100887
 30
0.0
 40
0.399999999999871
100
AcDbArc
 50
0.9753679245
 51
180.9753679245
  0
ARC
  5
4AC
330
1F
100
AcDbEntity
  8
0
  6
Continuous
 62
     7
370
    25
100
AcDbCircle
 10
23.2983246188
 20
38.8531852007
 30
0.0
 40
0.6812784561175276
100
AcDbArc
 50
0.9753679245
 51
180.9753679245
  0
ARC
  5
4AD
330
1F
100
AcDbEntity
  8
0
  6
Continuous
 62
     7
370
    25
100
AcDbCircle
 10
20.7983246188
 20
38.8531852007
 30
0.0
 40
0.6812784561175419
100
AcDbArc
 50
0.9753679245
 51
180.9753679245
  0
ARC
  5
4AE
330
1F
100
AcDbEntity
  8
0
  6
Continuous
 62
     7
370
    25
100
AcDbCircle
 10
18.2983246188
 20
38.8531852007
 30
0.0
 40
0.6812784561175781
100
AcDbArc
 50
0.9753679245
 51
180.9753679245
  0
ARC
  5
4AF
330
1F
100
AcDbEntity
  8
0
  6
Continuous
 62
     7
370
    25
100
AcDbCircle
 10
15.7983246188
 20
38.8531852007
 30
0.0
 40
0.6812784561175456
100
AcDbArc
 50
0.9753679245
 51
180.9753679245
  0
ARC
  5
4B0
330
1F
100
AcDbEntity
  8
0
  6
Continuous
 62
     7
370
    25
100
AcDbCircle
 10
13.2983246188
 20
38.8531852007
 30
0.0
 40
0.6812784561175257
100
AcDbArc
 50
0.9753679245
 51
180.9753679245
  0
ARC
  5
4B1
330
1F
100
AcDbEntity
  8
0
  6
Continuous
 62
     7
370
    25
100
AcDbCircle
 10
10.7983246188
 20
38.8531852007
 30
0.0
 40
0.6812784561175601
100
AcDbArc
 50
0.9753679245
 51
180.9753679245
  0
ARC
  5
4B2
330
1F
100
AcDbEntity
  8
0
  6
Continuous
 62
     7
370
    25
100
AcDbCircle
 10
157.6069428816
 20
46.2389689137
 30
0.0
 40
1.099999999999835
100
AcDbArc
 50
0.9753679245
 51
180.9753679245
  0
ARC
  5
4B3
330
1F
100
AcDbEntity
  8
0
  6
Continuous
 62
     7
370
    25
100
AcDbCircle
 10
26.5969428816
 20
46.2389694597
 30
0.0
 40
1.099999999999698
100
AcDbArc
 50
0.9753679245
 51
180.9753679245
  0
ARC
  5
4B4
330
1F
100
AcDbEntity
  8
0
  6
Continuous
 62
     7
370
    25
100
AcDbCircle
 10
141.1339860092
 20
49.2998160942
 30
0.0
 40
1.099999999999794
100
AcDbArc
 50
0.9753679245
 51
180.9753679245
  0
ARC
  5
4B5
330
1F
100
AcDbEntity
  8
0
  6
Continuous
 62
     7
370
    25
100
AcDbCircle
 10
10.1239860092
 20
49.2998166402
 30
0.0
 40
1.099999999999932
100
AcDbArc
 50
0.9753679245
 51
180.9753679245
  0
ARC
  5
4B6
330
1F
100
AcDbEntity
  8
0
  6
Continuous
 62
     7
370
    25
100
AcDbCircle
 10
56.0483246188
 20
50.5831852007
 30
0.0
 40
1.099999999999724
100
AcDbArc
 50
0.9753679245
 51
180.9753679245
  0
ARC
  5
4B7
330
1F
100
AcDbEntity
  8
0
  6
Continuous
 62
     7
370
    25
100
AcDbCircle
 10
119.0806778844
 20
52.2663565193
 30
0.0
 40
1.049999999999757
100
AcDbArc
 50
0.9753679245
 51
180.9753679245
  0
ARC
  5
4B8
330
1F
100
AcDbEntity
  8
0
  6
Continuous
 62
     7
370
    25
100
AcDbCircle
 10
47.9906778844
 20
52.2663565193
 30
0.0
 40
1.049999999999776
100
AcDbArc
 50
0.9753679245
 51
180.9753679245
  0
ARC
  5
4B9
330
1F
100
AcDbEntity
  8
0
  6
Continuous
 62
     7
370
    25
100
AcDbCircle
 10
146.3877307977
 20
55.4230598419
 30
0.0
 40
1.39999999999961
100
AcDbArc
 50
0.9753679245
 51
180.9753679245
  0
ARC
  5
4BA
330
1F
100
AcDbEntity
  8
0
  6
Continuous
 62
     7
370
    25
100
AcDbCircle
 10
139.8391936397
 20
55.57406914
 30
0.0
 40
1.349999999999971
100
AcDbArc
 50
0.9753679245
 51
180.9753679245
  0
ARC
  5
4BB
330
1F
100
AcDbEntity
  8
0
  6
Continuous
 62
     7
370
    25
100
AcDbCircle
 10
157.1189174096
 20
56.5993321844
 30
0.0
 40
1.349999999999915
100
AcDbArc
 50
0.9753679245
 51
180.9753679245
  0
ARC
  5
4BC
330
1F
100
AcDbEntity
  8
0
  6
Continuous
 62
     7
370
    25
100
AcDbCircle
 10
15.3777307977
 20
55.4230603874
 30
0.0
 40
1.399999999999625
100
AcDbArc
 50
0.9753679245
 51
180.9753679245
  0
ARC
  5
4BD
330
1F
100
AcDbEntity
  8
0
  6
Continuous
 62
     7
370
    25
100
AcDbCircle
 10
8.8291936398
 20
55.5740696855
 30
0.0
 40
1.349999999999789
100
AcDbArc
 50
0.9753679245
 51
180.9753679245
  0
ARC
  5
4BE
330
1F
100
AcDbEntity
  8
0
  6
Continuous
 62
     7
370
    25
100
AcDbCircle
 10
26.1089174096
 20
56.59933273
 30
0.0
 40
1.349999999999647
100
AcDbArc
 50
0.9753679245
 51
180.9753679245
  0
ARC
  5
4BF
330
1F
100
AcDbEntity
  8
0
  6
Continuous
 62
     7
370
    25
100
AcDbCircle
 10
129.6492904388
 20
59.565806385
 30
0.0
 40
1.159999999989878
100
AcDbArc
 50
0.0000000311
 51
179.9999999521
  0
ARC
  5
4C0
330
1F
100
AcDbEntity
  8
0
  6
Continuous
 62
     7
370
    25
100
AcDbCircle
 10
38.5247667899
 20
59.5658064008
 30
0.0
 40
1.189999999999721
100
AcDbArc
 50
359.9999999731
 51
180.0000000144
  0
ENDSEC
  0
SECTION
  2
OBJECTS
  0
DICTIONARY
  5
C
330
0
100
AcDbDictionary
281
     1
  3
ACAD_GROUP
350
D
  3
ACAD_LAYOUT
350
1A
  3
ACAD_MLINESTYLE
350
17
  3
ACAD_PLOTSETTINGS
350
19
  3
ACAD_PLOTSTYLENAME
350
E
  3
ACAD_SCALELIST
350
47
  3
DWGPROPS
350
4C1
  0
DICTIONARY
  5
D
102
{ACAD_REACTORS
330
C
102
}
330
C
100
AcDbDictionary
281
     1
  0
DICTIONARY
  5
1A
102
{ACAD_REACTORS
330
C
102
}
330
C
100
AcDbDictionary
281
     1
  3
Layout1
350
1E
  3
Layout2
350
26
  3
Model
350
22
  0
DICTIONARY
  5
17
102
{ACAD_REACTORS
330
C
102
}
330
C
100
AcDbDictionary
281
     1
  3
Standard
350
18
  0
DICTIONARY
  5
19
102
{ACAD_REACTORS
330
C
102
}
330
C
100
AcDbDictionary
281
     1
  0
ACDBDICTIONARYWDFLT
  5
E
102
{ACAD_REACTORS
330
C
102
}
330
C
100
AcDbDictionary
281
     1
  3
Normal
350
F
100
AcDbDictionaryWithDefault
340
F
  0
DICTIONARY
  5
47
102
{ACAD_REACTORS
330
C
102
}
330
C
100
AcDbDictionary
281
     1
  3
A0
350
48
  3
A1
350
49
  3
A2
350
4A
  3
A3
350
4B
  3
A4
350
4C
  3
A5
350
4D
  3
A6
350
4E
  3
A7
350
4F
  3
A8
350
50
  3
A9
350
51
  3
B0
350
52
  3
B1
350
53
  3
B2
350
54
  3
B3
350
55
  3
B4
350
56
  3
B5
350
57
  3
B6
350
58
  0
XRECORD
  5
4C1
102
{ACAD_REACTORS
330
C
102
}
330
C
100
AcDbXrecord
280
     1
  1
DWGPROPS COOKIE
  2

  3

  4

  6

  7

  8
Farhan
  9

300
=
301
=
302
=
303
=
304
=
305
=
306
=
307
=
308
=
309
=
 40
0.0
 41
2460124.868869642
 42
2460124.868917257
  1

 90
        0
  0
LAYOUT
  5
1E
102
{ACAD_REACTORS
330
1A
102
}
330
1A
100
AcDbPlotSettings
  1

  2
none_device
  4

  6

 40
0.0
 41
0.0
 42
0.0
 43
0.0
 44
0.0
 45
0.0
 46
0.0
 47
0.0
 48
0.0
 49
0.0
140
0.0
141
0.0
142
1.0
143
1.0
 70
   688
 72
     1
 73
     0
 74
     5
  7

 75
    16
147
1.0
148
0.0
149
0.0
100
AcDbLayout
  1
Layout1
 70
     1
 71
     1
 10
0.0
 20
0.0
 11
420.0
 21
297.0
 12
0.0
 22
0.0
 32
0.0
 14
1.0000000000E+20
 24
1.0000000000E+20
 34
1.0000000000E+20
 15
-1.0000000000E+20
 25
-1.0000000000E+20
 35
-1.0000000000E+20
146
0.0
 13
0.0
 23
0.0
 33
0.0
 16
1.0
 26
0.0
 36
0.0
 17
0.0
 27
1.0
 37
0.0
 76
     0
330
1B
  0
LAYOUT
  5
26
102
{ACAD_REACTORS
330
1A
102
}
330
1A
100
AcDbPlotSettings
  1

  2
none_device
  4

  6

 40
0.0
 41
0.0
 42
0.0
 43
0.0
 44
0.0
 45
0.0
 46
0.0
 47
0.0
 48
0.0
 49
0.0
140
0.0
141
0.0
142
1.0
143
1.0
 70
   688
 72
     1
 73
     0
 74
     5
  7

 75
    16
147
1.0
148
0.0
149
0.0
100
AcDbLayout
  1
Layout2
 70
     1
 71
     2
 10
0.0
 20
0.0
 11
0.0
 21
0.0
 12
0.0
 22
0.0
 32
0.0
 14
0.0
 24
0.0
 34
0.0
 15
0.0
 25
0.0
 35
0.0
146
0.0
 13
0.0
 23
0.0
 33
0.0
 16
1.0
 26
0.0
 36
0.0
 17
0.0
 27
1.0
 37
0.0
 76
     0
330
23
  0
LAYOUT
  5
22
102
{ACAD_REACTORS
330
1A
102
}
330
1A
100
AcDbPlotSettings
  1

  2
none_device
  4
ANSI_A_(11.00_x_8.50_Inches)
  6

 40
6.35
 41
19.05
 42
6.35000508
 43
19.05000254
 44
279.4
 45
215.9
 46
0.1982483074
 47
29.0970414487
 48
0.0
 49
0.0
140
0.0
141
0.0
142
0.0623367789
143
1.0
 70
  1696
 72
     0
 73
     0
 74
     0
  7

 75
     0
147
0.0179189148
148
-1300.4909072572
149
0.0
100
AcDbLayout
  1
Model
 70
     1
 71
     0
 10
0.0
 20
0.0
 11
420.0
 21
297.0
 12
0.0
 22
0.0
 32
0.0
 14
-3.2533787447
 24
8.2712107888
 34
0.0
 15
171.4428470302
 25
67.2683720635
 35
0.0
146
0.0
 13
0.0
 23
0.0
 33
0.0
 16
1.0
 26
0.0
 36
0.0
 17
0.0
 27
1.0
 37
0.0
 76
     0
330
1F
331
29
  0
MLINESTYLE
  5
18
102
{ACAD_REACTORS
330
17
102
}
330
17
100
AcDbMlineStyle
  2
Standard
 70
     0
  3

 62
   256
 51
90.0
 52
90.0
 71
     2
 49
0.5
 62
   256
  6
BYLAYER
 49
-0.5
 62
   256
  6
BYLAYER
  0
ACDBPLACEHOLDER
  5
F
102
{ACAD_REACTORS
330
E
102
}
330
E
  0
SCALE
  5
48
102
{ACAD_REACTORS
330
47
102
}
330
47
100
AcDbScale
 70
     0
300
1:1
140
1.0
141
1.0
290
     1
  0
SCALE
  5
49
102
{ACAD_REACTORS
330
47
102
}
330
47
100
AcDbScale
 70
     0
300
1:2
140
1.0
141
2.0
290
     0
  0
SCALE
  5
4A
102
{ACAD_REACTORS
330
47
102
}
330
47
100
AcDbScale
 70
     0
300
1:4
140
1.0
141
4.0
290
     0
  0
SCALE
  5
4B
102
{ACAD_REACTORS
330
47
102
}
330
47
100
AcDbScale
 70
     0
300
1:5
140
1.0
141
5.0
290
     0
  0
SCALE
  5
4C
102
{ACAD_REACTORS
330
47
102
}
330
47
100
AcDbScale
 70
     0
300
1:8
140
1.0
141
8.0
290
     0
  0
SCALE
  5
4D
102
{ACAD_REACTORS
330
47
102
}
330
47
100
AcDbScale
 70
     0
300
1:10
140
1.0
141
10.0
290
     0
  0
SCALE
  5
4E
102
{ACAD_REACTORS
330
47
102
}
330
47
100
AcDbScale
 70
     0
300
1:16
140
1.0
141
16.0
290
     0
  0
SCALE
  5
4F
102
{ACAD_REACTORS
330
47
102
}
330
47
100
AcDbScale
 70
     0
300
1:20
140
1.0
141
20.0
290
     0
  0
SCALE
  5
50
102
{ACAD_REACTORS
330
47
102
}
330
47
100
AcDbScale
 70
     0
300
1:30
140
1.0
141
30.0
290
     0
  0
SCALE
  5
51
102
{ACAD_REACTORS
330
47
102
}
330
47
100
AcDbScale
 70
     0
300
1:40
140
1.0
141
40.0
290
     0
  0
SCALE
  5
52
102
{ACAD_REACTORS
330
47
102
}
330
47
100
AcDbScale
 70
     0
300
1:50
140
1.0
141
50.0
290
     0
  0
SCALE
  5
53
102
{ACAD_REACTORS
330
47
102
}
330
47
100
AcDbScale
 70
     0
300
1:100
140
1.0
141
100.0
290
     0
  0
SCALE
  5
54
102
{ACAD_REACTORS
330
47
102
}
330
47
100
AcDbScale
 70
     0
300
2:1
140
2.0
141
1.0
290
     0
  0
SCALE
  5
55
102
{ACAD_REACTORS
330
47
102
}
330
47
100
AcDbScale
 70
     0
300
4:1
140
4.0
141
1.0
290
     0
  0
SCALE
  5
56
102
{ACAD_REACTORS
330
47
102
}
330
47
100
AcDbScale
 70
     0
300
8:1
140
8.0
141
1.0
290
     0
  0
SCALE
  5
57
102
{ACAD_REACTORS
330
47
102
}
330
47
100
AcDbScale
 70
     0
300
10:1
140
10.0
141
1.0
290
     0
  0
SCALE
  5
58
102
{ACAD_REACTORS
330
47
102
}
330
47
100
AcDbScale
 70
     0
300
100:1
140
100.0
141
1.0
290
     0
  0
ENDSEC
  0
EOF
